<svg width="18" height="20" viewBox="0 0 18 20" fill="none" xmlns="http://www.w3.org/2000/svg">
<path d="M11.0588 11.295L9.1118 13.2438C8.97332 13.3786 8.78771 13.454 8.59446 13.454C8.40121 13.454 8.2156 13.3786 8.07712 13.2438L7.54309 12.7098C7.52935 12.6964 7.512 12.6873 7.49317 12.6837C7.47433 12.68 7.45484 12.682 7.4371 12.6893C7.41935 12.6966 7.40413 12.7089 7.39331 12.7247C7.38249 12.7406 7.37654 12.7592 7.3762 12.7784V15.1408C7.37896 15.3313 7.30827 15.5156 7.17881 15.6554C7.04935 15.7952 6.87104 15.8798 6.68085 15.8917C6.58199 15.8965 6.48319 15.8811 6.39044 15.8466C6.2977 15.812 6.21294 15.7589 6.14133 15.6906C6.06971 15.6223 6.01272 15.5401 5.97382 15.4491C5.93492 15.3581 5.91493 15.2601 5.91504 15.1612V10.7777C5.91475 10.6329 5.95743 10.4914 6.03769 10.371C6.11795 10.2506 6.23216 10.1567 6.36584 10.1013C6.49952 10.0459 6.64664 10.0314 6.78856 10.0597C6.93047 10.088 7.06078 10.1578 7.16296 10.2603L8.46095 11.5583C8.47833 11.5774 8.49951 11.5927 8.52314 11.6032C8.54677 11.6136 8.57233 11.619 8.59817 11.619C8.62401 11.619 8.64956 11.6136 8.67319 11.6032C8.69682 11.5927 8.718 11.5774 8.73538 11.5583L10.0334 10.2603C10.1706 10.1234 10.3566 10.0465 10.5504 10.0467C10.7443 10.0469 10.9302 10.124 11.0671 10.2612C11.2041 10.3985 11.2809 10.5845 11.2808 10.7783C11.2806 10.9722 11.2034 11.158 11.0662 11.295H11.0588Z" fill="#FFBB02"/>
<path d="M12.5902 12.756L10.9695 14.3767C10.8971 14.4504 10.8565 14.5496 10.8564 14.653V15.161C10.8564 15.3548 10.7795 15.5406 10.6424 15.6776C10.5054 15.8146 10.3196 15.8916 10.1258 15.8916C9.93209 15.8916 9.74626 15.8146 9.60925 15.6776C9.47224 15.5406 9.39527 15.3548 9.39527 15.161V14.1894C9.39497 14.0934 9.41366 13.9982 9.45025 13.9094C9.48685 13.8207 9.54063 13.74 9.60851 13.6721L11.5573 11.7158C11.6256 11.648 11.7066 11.5943 11.7957 11.5578C11.8848 11.5213 11.9801 11.5026 12.0764 11.503C12.1726 11.5033 12.2679 11.5226 12.3567 11.5598C12.4455 11.5969 12.5261 11.6512 12.5939 11.7195C12.6617 11.7878 12.7154 11.8688 12.7519 11.9579C12.7884 12.0469 12.807 12.1423 12.8067 12.2385C12.8064 12.3348 12.7871 12.43 12.7499 12.5188C12.7128 12.6076 12.6585 12.6882 12.5902 12.756Z" fill="#FFBB02"/>
<path d="M1.4624 12.969C1.4624 10.1265 1.4624 8.70417 2.11486 7.82164C2.76657 6.93811 3.81688 6.93811 5.91601 6.93811H11.8542C13.9533 6.93811 15.0036 6.93811 15.6553 7.82164C16.3078 8.70417 16.3078 10.1265 16.3078 12.969C16.3078 15.8116 16.3078 17.2339 15.6553 18.1164C15.0036 19 13.9533 19 11.8542 19H5.91601C3.81688 19 2.76657 19 2.11486 18.1164C1.4624 17.2339 1.4624 15.8116 1.4624 12.969Z" stroke="#FFBB02" stroke-width="1.5" stroke-linecap="round"/>
<path d="M4.43164 6.93815V5.45361C4.43164 4.27244 4.90086 3.13965 5.73607 2.30443C6.57129 1.46922 7.70408 1 8.88525 1C10.0664 1 11.1992 1.46922 12.0344 2.30443C12.8696 3.13965 13.3389 4.27244 13.3389 5.45361V6.93815" stroke="#FFBB02" stroke-width="1.5" stroke-linecap="round"/>
</svg>
