<svg width="78" height="20" viewBox="0 0 78 20" fill="none" xmlns="http://www.w3.org/2000/svg">
<path fill-rule="evenodd" clip-rule="evenodd" d="M25.0146 20C29.1599 20 32.5204 16.6395 32.5204 12.4942C32.5204 8.34885 29.1599 4.98838 25.0146 4.98838C20.8693 4.98838 17.5088 8.34885 17.5088 12.4942C17.5088 16.6395 20.8693 20 25.0146 20ZM25.0144 14.9992C26.3979 14.9992 27.5194 13.8777 27.5194 12.4942C27.5194 11.1107 26.3979 9.9892 25.0144 9.9892C23.631 9.9892 22.5094 11.1107 22.5094 12.4942C22.5094 13.8777 23.631 14.9992 25.0144 14.9992Z" fill="white"/>
<path d="M55.9289 5.72066C54.9526 4.74429 53.3695 4.74429 52.3932 5.72066C51.4168 6.69704 51.4168 8.28006 52.3932 9.25643L56.6667 13.53V17.5C56.6667 18.8807 57.786 20 59.1667 20C60.5475 20 61.6667 18.8807 61.6667 17.5V13.5299L65.9401 9.25643C66.9165 8.28006 66.9165 6.69704 65.9401 5.72066C64.9637 4.74429 63.3807 4.74429 62.4044 5.72066L59.1667 8.9584L55.9289 5.72066Z" fill="white"/>
<path d="M18.5691 4.27368L11.9093 10.9398C11.4357 11.4009 10.8007 11.6588 10.1397 11.6588C9.47872 11.6588 8.84381 11.4009 8.37014 10.9398L6.54345 9.11312C6.49648 9.06729 6.43712 9.03622 6.37269 9.02374C6.30827 9.01125 6.2416 9.01789 6.1809 9.04284C6.12021 9.06779 6.06815 9.10997 6.03113 9.16416C5.99412 9.21834 5.97378 9.28218 5.97262 9.3478V17.4283C5.98203 18.0801 5.74025 18.7104 5.29742 19.1887C4.85458 19.6669 4.24466 19.9564 3.59413 19.9971C3.25595 20.0134 2.91799 19.9609 2.60075 19.8426C2.28351 19.7243 1.99361 19.5429 1.74863 19.3092C1.50366 19.0755 1.30874 18.7944 1.17568 18.4831C1.04263 18.1718 0.974221 17.8367 0.974615 17.4981V2.50408C0.973608 2.00909 1.11963 1.52495 1.39415 1.11305C1.66868 0.701161 2.05934 0.380073 2.5166 0.19051C2.97386 0.00094827 3.47711 -0.0485484 3.96254 0.0482976C4.44797 0.145144 4.8937 0.383969 5.24321 0.734487L9.68306 5.17434C9.74251 5.23974 9.81497 5.292 9.8958 5.32776C9.97662 5.36352 10.064 5.38199 10.1524 5.38199C10.2408 5.38199 10.3282 5.36352 10.409 5.32776C10.4899 5.292 10.5623 5.23974 10.6218 5.17434L15.0616 0.734487C15.5309 0.266002 16.1672 0.00314361 16.8303 0.00373835C17.4934 0.0043331 18.1292 0.268332 18.5976 0.737658C19.0661 1.20698 19.329 1.84319 19.3284 2.50633C19.3278 3.16946 19.0638 3.8052 18.5945 4.27368H18.5691Z" fill="white"/>
<path d="M76.4748 9.27458L70.9314 14.8181C70.6837 15.0703 70.5448 15.4096 70.5445 15.7631V17.501C70.5445 18.1638 70.2812 18.7994 69.8125 19.2681C69.3439 19.7367 68.7083 20 68.0455 20C67.3827 20 66.7471 19.7367 66.2784 19.2681C65.8098 18.7994 65.5465 18.1638 65.5465 17.501V14.1774C65.5455 13.849 65.6094 13.5235 65.7346 13.2198C65.8597 12.9162 66.0437 12.6402 66.2759 12.4078L72.942 5.71636C73.1756 5.48439 73.4527 5.30071 73.7573 5.17581C74.0619 5.0509 74.3882 4.98722 74.7174 4.9884C75.0466 4.98958 75.3724 5.05559 75.6761 5.18267C75.9798 5.30975 76.2556 5.49541 76.4875 5.72905C76.7195 5.96268 76.9032 6.23972 77.0281 6.54434C77.153 6.84897 77.2167 7.17521 77.2155 7.50444C77.2143 7.83368 77.1483 8.15945 77.0212 8.46317C76.8941 8.7669 76.7085 9.04261 76.4748 9.27458Z" fill="white"/>
<path d="M50.1749 12.4942C50.1749 8.34885 46.8145 4.98838 42.6691 4.98838C38.5238 4.98838 35.1633 8.34885 35.1633 12.4942V17.5C35.1633 18.8807 36.2826 20 37.6633 20C39.044 20 40.1633 18.8807 40.1633 17.5V12.4942C40.1633 11.1103 41.2852 9.9884 42.6691 9.9884C44.0531 9.9884 45.175 11.1103 45.175 12.4942V17.5C45.175 18.8807 46.2943 20 47.675 20C49.0557 20 50.175 18.8807 50.175 17.5L50.1749 12.4942Z" fill="white"/>
</svg>
