<svg width="28" height="34" viewBox="0 0 28 34" fill="none" xmlns="http://www.w3.org/2000/svg">
<path d="M17.4886 19.0936L14.3409 22.2442C14.1171 22.4621 13.817 22.5841 13.5046 22.5841C13.1922 22.5841 12.8921 22.4621 12.6682 22.2442L11.8049 21.3809C11.7827 21.3592 11.7546 21.3445 11.7242 21.3386C11.6937 21.3327 11.6622 21.3359 11.6335 21.3477C11.6048 21.3595 11.5802 21.3794 11.5627 21.405C11.5452 21.4306 11.5356 21.4608 11.5351 21.4918V25.3109C11.5395 25.6189 11.4252 25.9169 11.2159 26.1429C11.0066 26.3689 10.7184 26.5058 10.4109 26.525C10.2511 26.5327 10.0914 26.5079 9.94142 26.452C9.79148 26.3961 9.65446 26.3103 9.53868 26.1999C9.4229 26.0894 9.33077 25.9566 9.26788 25.8094C9.205 25.6623 9.17267 25.5039 9.17285 25.3439V18.2572C9.17238 18.0233 9.24139 17.7945 9.37114 17.5998C9.50089 17.4051 9.68553 17.2534 9.90164 17.1638C10.1178 17.0742 10.3556 17.0508 10.585 17.0966C10.8145 17.1423 11.0251 17.2552 11.1903 17.4209L13.2887 19.5193C13.3168 19.5502 13.3511 19.5749 13.3893 19.5918C13.4275 19.6087 13.4688 19.6174 13.5106 19.6174C13.5523 19.6174 13.5937 19.6087 13.6319 19.5918C13.6701 19.5749 13.7043 19.5502 13.7324 19.5193L15.8308 17.4209C16.0526 17.1995 16.3533 17.0752 16.6667 17.0755C16.9802 17.0758 17.2806 17.2006 17.5021 17.4224C17.7235 17.6442 17.8477 17.9449 17.8474 18.2583C17.8471 18.5717 17.7224 18.8722 17.5006 19.0936H17.4886Z" fill="#613AE7"/>
<path d="M19.9644 21.4558L17.3444 24.0758C17.2274 24.195 17.1617 24.3554 17.1615 24.5224V25.3438C17.1615 25.6571 17.0371 25.9575 16.8156 26.179C16.5941 26.4005 16.2937 26.5249 15.9804 26.5249C15.6672 26.5249 15.3668 26.4005 15.1453 26.179C14.9238 25.9575 14.7993 25.6571 14.7993 25.3438V23.773C14.7988 23.6178 14.8291 23.4639 14.8882 23.3204C14.9474 23.1769 15.0343 23.0465 15.1441 22.9366L18.2947 19.774C18.4051 19.6644 18.536 19.5776 18.68 19.5185C18.824 19.4595 18.9782 19.4294 19.1338 19.43C19.2894 19.4305 19.4434 19.4617 19.5869 19.5218C19.7305 19.5819 19.8608 19.6696 19.9704 19.78C20.08 19.8904 20.1669 20.0214 20.2259 20.1654C20.2849 20.3093 20.315 20.4635 20.3145 20.6191C20.3139 20.7747 20.2827 20.9287 20.2226 21.0723C20.1626 21.2158 20.0748 21.3461 19.9644 21.4558Z" fill="#613AE7"/>
<path d="M1.97461 21.8C1.97461 17.2045 1.97461 14.9052 3.02941 13.4784C4.08301 12.05 5.78101 12.05 9.17461 12.05H18.7746C22.1682 12.05 23.8662 12.05 24.9198 13.4784C25.9746 14.9052 25.9746 17.2045 25.9746 21.8C25.9746 26.3955 25.9746 28.6949 24.9198 30.1217C23.8662 31.55 22.1682 31.55 18.7746 31.55H9.17461C5.78101 31.55 4.08301 31.55 3.02941 30.1217C1.97461 28.6949 1.97461 26.3955 1.97461 21.8Z" stroke="#613AE7" stroke-width="3" stroke-linecap="round"/>
<path d="M6.7749 12.05V9.65001C6.7749 7.74045 7.53347 5.90911 8.88373 4.55884C10.234 3.20858 12.0653 2.45001 13.9749 2.45001C15.8845 2.45001 17.7158 3.20858 19.0661 4.55884C20.4163 5.90911 21.1749 7.74045 21.1749 9.65001V12.05" stroke="#613AE7" stroke-width="3" stroke-linecap="round"/>
</svg>
