<svg width="106" height="128" viewBox="0 0 106 128" fill="none" xmlns="http://www.w3.org/2000/svg">
<mask id="mask0_1537_4187" style="mask-type:alpha" maskUnits="userSpaceOnUse" x="0" y="0" width="106" height="128">
<rect width="70" height="92" rx="5" fill="#A7A7A7"/>
<rect x="36" y="36" width="70" height="92" rx="5" fill="#D9D9D9"/>
</mask>
<g mask="url(#mask0_1537_4187)">
<circle cx="1.65137" cy="1.22681" r="1.5" fill="#242A38"/>
<circle cx="7.65137" cy="1.22681" r="1.5" fill="#242A38"/>
<circle cx="13.6514" cy="1.22681" r="1.5" fill="#242A38"/>
<circle cx="19.6514" cy="1.22681" r="1.5" fill="#242A38"/>
<circle cx="25.6514" cy="1.22681" r="1.5" fill="#242A38"/>
<circle cx="31.6514" cy="1.22681" r="1.5" fill="#242A38"/>
<circle cx="37.6514" cy="1.22681" r="1.5" fill="#242A38"/>
<circle cx="43.6514" cy="1.22681" r="1.5" fill="#242A38"/>
<circle cx="49.6514" cy="1.22681" r="1.5" fill="#242A38"/>
<circle cx="55.6514" cy="1.22681" r="1.5" fill="#242A38"/>
<circle cx="61.6514" cy="1.22681" r="1.5" fill="#242A38"/>
<circle cx="67.6514" cy="1.22681" r="1.5" fill="#242A38"/>
<circle cx="73.6514" cy="1.22681" r="1.5" fill="#242A38"/>
<circle cx="79.6514" cy="1.22681" r="1.5" fill="#242A38"/>
<circle cx="85.6514" cy="1.22681" r="1.5" fill="#242A38"/>
<circle cx="91.6514" cy="1.22681" r="1.5" fill="#242A38"/>
<circle cx="97.6514" cy="1.22681" r="1.5" fill="#242A38"/>
<circle cx="103.651" cy="1.22681" r="1.5" fill="#242A38"/>
<circle cx="1.65137" cy="7.22681" r="1.5" fill="#242A38"/>
<circle cx="7.65137" cy="7.22681" r="1.5" fill="#242A38"/>
<circle cx="13.6514" cy="7.22681" r="1.5" fill="#242A38"/>
<circle cx="19.6514" cy="7.22681" r="1.5" fill="#242A38"/>
<circle cx="25.6514" cy="7.22681" r="1.5" fill="#242A38"/>
<circle cx="31.6514" cy="7.22681" r="1.5" fill="#242A38"/>
<circle cx="37.6514" cy="7.22681" r="1.5" fill="#242A38"/>
<circle cx="43.6514" cy="7.22681" r="1.5" fill="#242A38"/>
<circle cx="49.6514" cy="7.22681" r="1.5" fill="#242A38"/>
<circle cx="55.6514" cy="7.22681" r="1.5" fill="#242A38"/>
<circle cx="61.6514" cy="7.22681" r="1.5" fill="#242A38"/>
<circle cx="67.6514" cy="7.22681" r="1.5" fill="#242A38"/>
<circle cx="73.6514" cy="7.22681" r="1.5" fill="#242A38"/>
<circle cx="79.6514" cy="7.22681" r="1.5" fill="#242A38"/>
<circle cx="85.6514" cy="7.22681" r="1.5" fill="#242A38"/>
<circle cx="91.6514" cy="7.22681" r="1.5" fill="#242A38"/>
<circle cx="97.6514" cy="7.22681" r="1.5" fill="#242A38"/>
<circle cx="103.651" cy="7.22681" r="1.5" fill="#242A38"/>
<circle cx="1.65137" cy="13.2268" r="1.5" fill="#242A38"/>
<circle cx="7.65137" cy="13.2268" r="1.5" fill="#242A38"/>
<circle cx="13.6514" cy="13.2268" r="1.5" fill="#242A38"/>
<circle cx="19.6514" cy="13.2268" r="1.5" fill="#242A38"/>
<circle cx="25.6514" cy="13.2268" r="1.5" fill="#242A38"/>
<circle cx="31.6514" cy="13.2268" r="1.5" fill="#242A38"/>
<circle cx="37.6514" cy="13.2268" r="1.5" fill="#242A38"/>
<circle cx="43.6514" cy="13.2268" r="1.5" fill="#242A38"/>
<circle cx="49.6514" cy="13.2268" r="1.5" fill="#242A38"/>
<circle cx="55.6514" cy="13.2268" r="1.5" fill="#242A38"/>
<circle cx="61.6514" cy="13.2268" r="1.5" fill="#242A38"/>
<circle cx="67.6514" cy="13.2268" r="1.5" fill="#242A38"/>
<circle cx="73.6514" cy="13.2268" r="1.5" fill="#242A38"/>
<circle cx="79.6514" cy="13.2268" r="1.5" fill="#242A38"/>
<circle cx="85.6514" cy="13.2268" r="1.5" fill="#242A38"/>
<circle cx="91.6514" cy="13.2268" r="1.5" fill="#242A38"/>
<circle cx="97.6514" cy="13.2268" r="1.5" fill="#242A38"/>
<circle cx="103.651" cy="13.2268" r="1.5" fill="#242A38"/>
<circle cx="1.65137" cy="19.2268" r="1.5" fill="#242A38"/>
<circle cx="7.65137" cy="19.2268" r="1.5" fill="#242A38"/>
<circle cx="13.6514" cy="19.2268" r="1.5" fill="#242A38"/>
<circle cx="19.6514" cy="19.2268" r="1.5" fill="#0F0E17"/>
<circle cx="25.6514" cy="19.2268" r="1.5" fill="#0F0E17"/>
<circle cx="31.6514" cy="19.2268" r="1.5" fill="#0F0E17"/>
<circle cx="37.6514" cy="19.2268" r="1.5" fill="#0F0E17"/>
<circle cx="43.6514" cy="19.2268" r="1.5" fill="#0F0E17"/>
<circle cx="49.6514" cy="19.2268" r="1.5" fill="#0F0E17"/>
<circle cx="55.6514" cy="19.2268" r="1.5" fill="#0F0E17"/>
<circle cx="61.6514" cy="19.2268" r="1.5" fill="#242A38"/>
<circle cx="67.6514" cy="19.2268" r="1.5" fill="#242A38"/>
<circle cx="73.6514" cy="19.2268" r="1.5" fill="#242A38"/>
<circle cx="79.6514" cy="19.2268" r="1.5" fill="#242A38"/>
<circle cx="85.6514" cy="19.2268" r="1.5" fill="#242A38"/>
<circle cx="91.6514" cy="19.2268" r="1.5" fill="#242A38"/>
<circle cx="97.6514" cy="19.2268" r="1.5" fill="#242A38"/>
<circle cx="103.651" cy="19.2268" r="1.5" fill="#242A38"/>
<circle cx="1.65137" cy="25.2268" r="1.5" fill="#242A38"/>
<circle cx="7.65137" cy="25.2268" r="1.5" fill="#242A38"/>
<circle cx="13.6514" cy="25.2268" r="1.5" fill="#242A38"/>
<circle cx="19.6514" cy="25.2268" r="1.5" fill="#242A38"/>
<circle cx="25.6514" cy="25.2268" r="1.5" fill="#242A38"/>
<circle cx="31.6514" cy="25.2268" r="1.5" fill="#242A38"/>
<circle cx="37.6514" cy="25.2268" r="1.5" fill="#242A38"/>
<circle cx="43.6514" cy="25.2268" r="1.5" fill="#242A38"/>
<circle cx="49.6514" cy="25.2268" r="1.5" fill="#242A38"/>
<circle cx="55.6514" cy="25.2268" r="1.5" fill="#242A38"/>
<circle cx="61.6514" cy="25.2268" r="1.5" fill="#242A38"/>
<circle cx="67.6514" cy="25.2268" r="1.5" fill="#242A38"/>
<circle cx="73.6514" cy="25.2268" r="1.5" fill="#242A38"/>
<circle cx="79.6514" cy="25.2268" r="1.5" fill="#242A38"/>
<circle cx="85.6514" cy="25.2268" r="1.5" fill="#242A38"/>
<circle cx="91.6514" cy="25.2268" r="1.5" fill="#242A38"/>
<circle cx="97.6514" cy="25.2268" r="1.5" fill="#242A38"/>
<circle cx="103.651" cy="25.2268" r="1.5" fill="#242A38"/>
<circle cx="1.65137" cy="31.2268" r="1.5" fill="#242A38"/>
<circle cx="7.65137" cy="31.2268" r="1.5" fill="#242A38"/>
<circle cx="13.6514" cy="31.2268" r="1.5" fill="#0F0E17"/>
<circle cx="19.6514" cy="31.2268" r="1.5" fill="#0F0E17"/>
<circle cx="25.6514" cy="31.2268" r="1.5" fill="#0F0E17"/>
<circle cx="31.6514" cy="31.2268" r="1.5" fill="#0F0E17"/>
<circle cx="37.6514" cy="31.2268" r="1.5" fill="#0F0E17"/>
<circle cx="43.6514" cy="31.2268" r="1.5" fill="#0F0E17"/>
<circle cx="49.6514" cy="31.2268" r="1.5" fill="#0F0E17"/>
<circle cx="55.6514" cy="31.2268" r="1.5" fill="#0F0E17"/>
<circle cx="61.6514" cy="31.2268" r="1.5" fill="#242A38"/>
<circle cx="67.6514" cy="31.2268" r="1.5" fill="#242A38"/>
<circle cx="73.6514" cy="31.2268" r="1.5" fill="#242A38"/>
<circle cx="79.6514" cy="31.2268" r="1.5" fill="#242A38"/>
<circle cx="85.6514" cy="31.2268" r="1.5" fill="#242A38"/>
<circle cx="91.6514" cy="31.2268" r="1.5" fill="#242A38"/>
<circle cx="97.6514" cy="31.2268" r="1.5" fill="#242A38"/>
<circle cx="103.651" cy="31.2268" r="1.5" fill="#242A38"/>
<circle cx="1.65137" cy="37.2268" r="1.5" fill="#242A38"/>
<circle cx="7.65137" cy="37.2268" r="1.5" fill="#242A38"/>
<circle cx="13.6514" cy="37.2268" r="1.5" fill="#242A38"/>
<circle cx="19.6514" cy="37.2268" r="1.5" fill="#242A38"/>
<circle cx="25.6514" cy="37.2268" r="1.5" fill="#242A38"/>
<circle cx="31.6514" cy="37.2268" r="1.5" fill="#242A38"/>
<circle cx="37.6514" cy="37.2268" r="1.5" fill="#FFBB02"/>
<circle cx="43.6514" cy="37.2268" r="1.5" fill="#FFBB02"/>
<circle cx="49.6514" cy="37.2268" r="1.5" fill="#FFBB02"/>
<circle cx="55.6514" cy="37.2268" r="1.5" fill="#FFBB02"/>
<circle cx="61.6514" cy="37.2268" r="1.5" fill="#FFBB02"/>
<circle cx="67.6514" cy="37.2268" r="1.5" fill="#FFBB02"/>
<circle cx="73.6514" cy="37.2268" r="1.5" fill="#FFBB02"/>
<circle cx="79.6514" cy="37.2268" r="1.5" fill="#FFBB02"/>
<circle cx="85.6514" cy="37.2268" r="1.5" fill="#FFBB02"/>
<circle cx="91.6514" cy="37.2268" r="1.5" fill="#FFBB02"/>
<circle cx="97.6514" cy="37.2268" r="1.5" fill="#FFBB02"/>
<circle cx="103.651" cy="37.2268" r="1.5" fill="#FFBB02"/>
<circle cx="1.65137" cy="43.2268" r="1.5" fill="#242A38"/>
<circle cx="7.65137" cy="43.2268" r="1.5" fill="#242A38"/>
<circle cx="13.6514" cy="43.2268" r="1.5" fill="#0F0E17"/>
<circle cx="19.6514" cy="43.2268" r="1.5" fill="#0F0E17"/>
<circle cx="25.6514" cy="43.2268" r="1.5" fill="#0F0E17"/>
<circle cx="31.6514" cy="43.2268" r="1.5" fill="#0F0E17"/>
<circle cx="37.6514" cy="43.2268" r="1.5" fill="#FFBB02"/>
<circle cx="43.6514" cy="43.2268" r="1.5" fill="#0F0E17"/>
<circle cx="49.6514" cy="43.2268" r="1.5" fill="#0F0E17"/>
<circle cx="55.6514" cy="43.2268" r="1.5" fill="#0F0E17"/>
<circle cx="61.6514" cy="43.2268" r="1.5" fill="#0F0E17"/>
<circle cx="67.6514" cy="43.2268" r="1.5" fill="#0F0E17"/>
<circle cx="73.6514" cy="43.2268" r="1.5" fill="#0F0E17"/>
<circle cx="79.6514" cy="43.2268" r="1.5" fill="#0F0E17"/>
<circle cx="85.6514" cy="43.2268" r="1.5" fill="#0F0E17"/>
<circle cx="91.6514" cy="43.2268" r="1.5" fill="#0F0E17"/>
<circle cx="97.6514" cy="43.2268" r="1.5" fill="#0F0E17"/>
<circle cx="103.651" cy="43.2268" r="1.5" fill="#FFBB02"/>
<circle cx="1.65137" cy="49.2268" r="1.5" fill="#242A38"/>
<circle cx="7.65137" cy="49.2268" r="1.5" fill="#242A38"/>
<circle cx="13.6514" cy="49.2268" r="1.5" fill="#242A38"/>
<circle cx="19.6514" cy="49.2268" r="1.5" fill="#242A38"/>
<circle cx="25.6514" cy="49.2268" r="1.5" fill="#242A38"/>
<circle cx="31.6514" cy="49.2268" r="1.5" fill="#242A38"/>
<circle cx="37.6514" cy="49.2268" r="1.5" fill="#FFBB02"/>
<circle cx="43.6514" cy="49.2268" r="1.5" fill="#0F0E17"/>
<circle cx="49.6514" cy="49.2268" r="1.5" fill="#0F0E17"/>
<circle cx="55.6514" cy="49.2268" r="1.5" fill="#0F0E17"/>
<circle cx="61.6514" cy="49.2268" r="1.5" fill="#0F0E17"/>
<circle cx="67.6514" cy="49.2268" r="1.5" fill="#0F0E17"/>
<circle cx="73.6514" cy="49.2268" r="1.5" fill="#0F0E17"/>
<circle cx="79.6514" cy="49.2268" r="1.5" fill="#0F0E17"/>
<circle cx="85.6514" cy="49.2268" r="1.5" fill="#0F0E17"/>
<circle cx="91.6514" cy="49.2268" r="1.5" fill="#0F0E17"/>
<circle cx="97.6514" cy="49.2268" r="1.5" fill="#0F0E17"/>
<circle cx="103.651" cy="49.2268" r="1.5" fill="#FFBB02"/>
<circle cx="1.65137" cy="55.2268" r="1.5" fill="#242A38"/>
<circle cx="7.65137" cy="55.2268" r="1.5" fill="#242A38"/>
<circle cx="13.6514" cy="55.2268" r="1.5" fill="#0F0E17"/>
<circle cx="19.6514" cy="55.2268" r="1.5" fill="#0F0E17"/>
<circle cx="25.6514" cy="55.2268" r="1.5" fill="#0F0E17"/>
<circle cx="31.6514" cy="55.2268" r="1.5" fill="#0F0E17"/>
<circle cx="37.6514" cy="55.2268" r="1.5" fill="#FFBB02"/>
<circle cx="43.6514" cy="55.2268" r="1.5" fill="#0F0E17"/>
<circle cx="49.6514" cy="55.2268" r="1.5" fill="#0F0E17"/>
<circle cx="55.6514" cy="55.2268" r="1.5" fill="#FFBB02"/>
<circle cx="61.6514" cy="55.2268" r="1.5" fill="#FFBB02"/>
<circle cx="67.6514" cy="55.2268" r="1.5" fill="#FFBB02"/>
<circle cx="73.6514" cy="55.2268" r="1.5" fill="#FFBB02"/>
<circle cx="79.6514" cy="55.2268" r="1.5" fill="#FFBB02"/>
<circle cx="85.6514" cy="55.2268" r="1.5" fill="#FFBB02"/>
<circle cx="91.6514" cy="55.2268" r="1.5" fill="#FFBB02"/>
<circle cx="97.6514" cy="55.2268" r="1.5" fill="#0F0E17"/>
<circle cx="103.651" cy="55.2268" r="1.5" fill="#FFBB02"/>
<circle cx="1.65137" cy="61.2268" r="1.5" fill="#242A38"/>
<circle cx="7.65137" cy="61.2268" r="1.5" fill="#242A38"/>
<circle cx="13.6514" cy="61.2268" r="1.5" fill="#242A38"/>
<circle cx="19.6514" cy="61.2268" r="1.5" fill="#242A38"/>
<circle cx="25.6514" cy="61.2268" r="1.5" fill="#242A38"/>
<circle cx="31.6514" cy="61.2268" r="1.5" fill="#242A38"/>
<circle cx="37.6514" cy="61.2268" r="1.5" fill="#FFBB02"/>
<circle cx="43.6514" cy="61.2268" r="1.5" fill="#0F0E17"/>
<circle cx="49.6514" cy="61.2268" r="1.5" fill="#0F0E17"/>
<circle cx="55.6514" cy="61.2268" r="1.5" fill="#0F0E17"/>
<circle cx="61.6514" cy="61.2268" r="1.5" fill="#0F0E17"/>
<circle cx="67.6514" cy="61.2268" r="1.5" fill="#0F0E17"/>
<circle cx="73.6514" cy="61.2268" r="1.5" fill="#0F0E17"/>
<circle cx="79.6514" cy="61.2268" r="1.5" fill="#0F0E17"/>
<circle cx="85.6514" cy="61.2268" r="1.5" fill="#0F0E17"/>
<circle cx="91.6514" cy="61.2268" r="1.5" fill="#0F0E17"/>
<circle cx="97.6514" cy="61.2268" r="1.5" fill="#0F0E17"/>
<circle cx="103.651" cy="61.2268" r="1.5" fill="#FFBB02"/>
<circle cx="1.65137" cy="67.2268" r="1.5" fill="#242A38"/>
<circle cx="7.65137" cy="67.2268" r="1.5" fill="#242A38"/>
<circle cx="13.6514" cy="67.2268" r="1.5" fill="#0F0E17"/>
<circle cx="19.6514" cy="67.2268" r="1.5" fill="#0F0E17"/>
<circle cx="25.6514" cy="67.2268" r="1.5" fill="#0F0E17"/>
<circle cx="31.6514" cy="67.2268" r="1.5" fill="#0F0E17"/>
<circle cx="37.6514" cy="67.2268" r="1.5" fill="#FFBB02"/>
<circle cx="43.6514" cy="67.2268" r="1.5" fill="#0F0E17"/>
<circle cx="49.6514" cy="67.2268" r="1.5" fill="#FFBB02"/>
<circle cx="55.6514" cy="67.2268" r="1.5" fill="#FFBB02"/>
<circle cx="61.6514" cy="67.2268" r="1.5" fill="#FFBB02"/>
<circle cx="67.6514" cy="67.2268" r="1.5" fill="#FFBB02"/>
<circle cx="73.6514" cy="67.2268" r="1.5" fill="#FFBB02"/>
<circle cx="79.6514" cy="67.2268" r="1.5" fill="#FFBB02"/>
<circle cx="85.6514" cy="67.2268" r="1.5" fill="#FFBB02"/>
<circle cx="91.6514" cy="67.2268" r="1.5" fill="#FFBB02"/>
<circle cx="97.6514" cy="67.2268" r="1.5" fill="#0F0E17"/>
<circle cx="103.651" cy="67.2268" r="1.5" fill="#FFBB02"/>
<circle cx="1.65137" cy="73.2268" r="1.5" fill="#242A38"/>
<circle cx="7.65137" cy="73.2268" r="1.5" fill="#242A38"/>
<circle cx="13.6514" cy="73.2268" r="1.5" fill="#242A38"/>
<circle cx="19.6514" cy="73.2268" r="1.5" fill="#242A38"/>
<circle cx="25.6514" cy="73.2268" r="1.5" fill="#242A38"/>
<circle cx="31.6514" cy="73.2268" r="1.5" fill="#242A38"/>
<circle cx="37.6514" cy="73.2268" r="1.5" fill="#FFBB02"/>
<circle cx="43.6514" cy="73.2268" r="1.5" fill="#0F0E17"/>
<circle cx="49.6514" cy="73.2268" r="1.5" fill="#0F0E17"/>
<circle cx="55.6514" cy="73.2268" r="1.5" fill="#0F0E17"/>
<circle cx="61.6514" cy="73.2268" r="1.5" fill="#0F0E17"/>
<circle cx="67.6514" cy="73.2268" r="1.5" fill="#0F0E17"/>
<circle cx="73.6514" cy="73.2268" r="1.5" fill="#0F0E17"/>
<circle cx="79.6514" cy="73.2268" r="1.5" fill="#0F0E17"/>
<circle cx="85.6514" cy="73.2268" r="1.5" fill="#0F0E17"/>
<circle cx="91.6514" cy="73.2268" r="1.5" fill="#0F0E17"/>
<circle cx="97.6514" cy="73.2268" r="1.5" fill="#0F0E17"/>
<circle cx="103.651" cy="73.2268" r="1.5" fill="#FFBB02"/>
<circle cx="1.65137" cy="79.2268" r="1.5" fill="#242A38"/>
<circle cx="7.65137" cy="79.2268" r="1.5" fill="#242A38"/>
<circle cx="13.6514" cy="79.2268" r="1.5" fill="#242A38"/>
<circle cx="19.6514" cy="79.2268" r="1.5" fill="#242A38"/>
<circle cx="25.6514" cy="79.2268" r="1.5" fill="#242A38"/>
<circle cx="31.6514" cy="79.2268" r="1.5" fill="#242A38"/>
<circle cx="37.6514" cy="79.2268" r="1.5" fill="#FFBB02"/>
<circle cx="43.6514" cy="79.2268" r="1.5" fill="#0F0E17"/>
<circle cx="49.6514" cy="79.2268" r="1.5" fill="#FFBB02"/>
<circle cx="55.6514" cy="79.2268" r="1.5" fill="#FFBB02"/>
<circle cx="61.6514" cy="79.2268" r="1.5" fill="#FFBB02"/>
<circle cx="67.6514" cy="79.2268" r="1.5" fill="#FFBB02"/>
<circle cx="73.6514" cy="79.2268" r="1.5" fill="#FFBB02"/>
<circle cx="79.6514" cy="79.2268" r="1.5" fill="#FFBB02"/>
<circle cx="85.6514" cy="79.2268" r="1.5" fill="#FFBB02"/>
<circle cx="91.6514" cy="79.2268" r="1.5" fill="#FFBB02"/>
<circle cx="97.6514" cy="79.2268" r="1.5" fill="#0F0E17"/>
<circle cx="103.651" cy="79.2268" r="1.5" fill="#FFBB02"/>
<circle cx="1.65137" cy="85.2268" r="1.5" fill="#242A38"/>
<circle cx="7.65137" cy="85.2268" r="1.5" fill="#242A38"/>
<circle cx="13.6514" cy="85.2268" r="1.5" fill="#242A38"/>
<circle cx="19.6514" cy="85.2268" r="1.5" fill="#242A38"/>
<circle cx="25.6514" cy="85.2268" r="1.5" fill="#242A38"/>
<circle cx="31.6514" cy="85.2268" r="1.5" fill="#242A38"/>
<circle cx="37.6514" cy="85.2268" r="1.5" fill="#FFBB02"/>
<circle cx="43.6514" cy="85.2268" r="1.5" fill="#0F0E17"/>
<circle cx="49.6514" cy="85.2268" r="1.5" fill="#0F0E17"/>
<circle cx="55.6514" cy="85.2268" r="1.5" fill="#0F0E17"/>
<circle cx="61.6514" cy="85.2268" r="1.5" fill="#0F0E17"/>
<circle cx="67.6514" cy="85.2268" r="1.5" fill="#0F0E17"/>
<circle cx="73.6514" cy="85.2268" r="1.5" fill="#0F0E17"/>
<circle cx="79.6514" cy="85.2268" r="1.5" fill="#0F0E17"/>
<circle cx="85.6514" cy="85.2268" r="1.5" fill="#0F0E17"/>
<circle cx="91.6514" cy="85.2268" r="1.5" fill="#0F0E17"/>
<circle cx="97.6514" cy="85.2268" r="1.5" fill="#0F0E17"/>
<circle cx="103.651" cy="85.2268" r="1.5" fill="#FFBB02"/>
<circle cx="1.65137" cy="91.2268" r="1.5" fill="#242A38"/>
<circle cx="7.65137" cy="91.2268" r="1.5" fill="#242A38"/>
<circle cx="13.6514" cy="91.2268" r="1.5" fill="#242A38"/>
<circle cx="19.6514" cy="91.2268" r="1.5" fill="#242A38"/>
<circle cx="25.6514" cy="91.2268" r="1.5" fill="#242A38"/>
<circle cx="31.6514" cy="91.2268" r="1.5" fill="#242A38"/>
<circle cx="37.6514" cy="91.2268" r="1.5" fill="#FFBB02"/>
<circle cx="43.6514" cy="91.2268" r="1.5" fill="#0F0E17"/>
<circle cx="49.6514" cy="91.2268" r="1.5" fill="#FFBB02"/>
<circle cx="55.6514" cy="91.2268" r="1.5" fill="#FFBB02"/>
<circle cx="61.6514" cy="91.2268" r="1.5" fill="#FFBB02"/>
<circle cx="67.6514" cy="91.2268" r="1.5" fill="#FFBB02"/>
<circle cx="73.6514" cy="91.2268" r="1.5" fill="#FFBB02"/>
<circle cx="79.6514" cy="91.2268" r="1.5" fill="#FFBB02"/>
<circle cx="85.6514" cy="91.2268" r="1.5" fill="#FFBB02"/>
<circle cx="91.6514" cy="91.2268" r="1.5" fill="#FFBB02"/>
<circle cx="97.6514" cy="91.2268" r="1.5" fill="#0F0E17"/>
<circle cx="103.651" cy="91.2268" r="1.5" fill="#FFBB02"/>
<circle cx="1.65137" cy="97.2268" r="1.5" fill="#242A38"/>
<circle cx="7.65137" cy="97.2268" r="1.5" fill="#242A38"/>
<circle cx="13.6514" cy="97.2268" r="1.5" fill="#242A38"/>
<circle cx="19.6514" cy="97.2268" r="1.5" fill="#242A38"/>
<circle cx="25.6514" cy="97.2268" r="1.5" fill="#242A38"/>
<circle cx="31.6514" cy="97.2268" r="1.5" fill="#242A38"/>
<circle cx="37.6514" cy="97.2268" r="1.5" fill="#FFBB02"/>
<circle cx="43.6514" cy="97.2268" r="1.5" fill="#0F0E17"/>
<circle cx="49.6514" cy="97.2268" r="1.5" fill="#0F0E17"/>
<circle cx="55.6514" cy="97.2268" r="1.5" fill="#0F0E17"/>
<circle cx="61.6514" cy="97.2268" r="1.5" fill="#0F0E17"/>
<circle cx="67.6514" cy="97.2268" r="1.5" fill="#0F0E17"/>
<circle cx="73.6514" cy="97.2268" r="1.5" fill="#0F0E17"/>
<circle cx="79.6514" cy="97.2268" r="1.5" fill="#0F0E17"/>
<circle cx="85.6514" cy="97.2268" r="1.5" fill="#0F0E17"/>
<circle cx="91.6514" cy="97.2268" r="1.5" fill="#0F0E17"/>
<circle cx="97.6514" cy="97.2268" r="1.5" fill="#0F0E17"/>
<circle cx="103.651" cy="97.2268" r="1.5" fill="#FFBB02"/>
<circle cx="1.65137" cy="103.227" r="1.5" fill="#242A38"/>
<circle cx="7.65137" cy="103.227" r="1.5" fill="#242A38"/>
<circle cx="13.6514" cy="103.227" r="1.5" fill="#242A38"/>
<circle cx="19.6514" cy="103.227" r="1.5" fill="#242A38"/>
<circle cx="25.6514" cy="103.227" r="1.5" fill="#242A38"/>
<circle cx="31.6514" cy="103.227" r="1.5" fill="#242A38"/>
<circle cx="37.6514" cy="103.227" r="1.5" fill="#FFBB02"/>
<circle cx="43.6514" cy="103.227" r="1.5" fill="#0F0E17"/>
<circle cx="49.6514" cy="103.227" r="1.5" fill="#FFBB02"/>
<circle cx="55.6514" cy="103.227" r="1.5" fill="#FFBB02"/>
<circle cx="61.6514" cy="103.227" r="1.5" fill="#FFBB02"/>
<circle cx="67.6514" cy="103.227" r="1.5" fill="#FFBB02"/>
<circle cx="73.6514" cy="103.227" r="1.5" fill="#FFBB02"/>
<circle cx="79.6514" cy="103.227" r="1.5" fill="#FFBB02"/>
<circle cx="85.6514" cy="103.227" r="1.5" fill="#FFBB02"/>
<circle cx="91.6514" cy="103.227" r="1.5" fill="#0F0E17"/>
<circle cx="97.6514" cy="103.227" r="1.5" fill="#0F0E17"/>
<circle cx="103.651" cy="103.227" r="1.5" fill="#FFBB02"/>
<circle cx="1.65137" cy="109.227" r="1.5" fill="#242A38"/>
<circle cx="7.65137" cy="109.227" r="1.5" fill="#242A38"/>
<circle cx="13.6514" cy="109.227" r="1.5" fill="#242A38"/>
<circle cx="19.6514" cy="109.227" r="1.5" fill="#242A38"/>
<circle cx="25.6514" cy="109.227" r="1.5" fill="#242A38"/>
<circle cx="31.6514" cy="109.227" r="1.5" fill="#242A38"/>
<circle cx="37.6514" cy="109.227" r="1.5" fill="#FFBB02"/>
<circle cx="43.6514" cy="109.227" r="1.5" fill="#0F0E17"/>
<circle cx="49.6514" cy="109.227" r="1.5" fill="#0F0E17"/>
<circle cx="55.6514" cy="109.227" r="1.5" fill="#0F0E17"/>
<circle cx="61.6514" cy="109.227" r="1.5" fill="#0F0E17"/>
<circle cx="67.6514" cy="109.227" r="1.5" fill="#0F0E17"/>
<circle cx="73.6514" cy="109.227" r="1.5" fill="#0F0E17"/>
<circle cx="79.6514" cy="109.227" r="1.5" fill="#0F0E17"/>
<circle cx="85.6514" cy="109.227" r="1.5" fill="#0F0E17"/>
<circle cx="91.6514" cy="109.227" r="1.5" fill="#0F0E17"/>
<circle cx="97.6514" cy="109.227" r="1.5" fill="#0F0E17"/>
<circle cx="103.651" cy="109.227" r="1.5" fill="#FFBB02"/>
<circle cx="1.65137" cy="115.227" r="1.5" fill="#242A38"/>
<circle cx="7.65137" cy="115.227" r="1.5" fill="#242A38"/>
<circle cx="13.6514" cy="115.227" r="1.5" fill="#242A38"/>
<circle cx="19.6514" cy="115.227" r="1.5" fill="#242A38"/>
<circle cx="25.6514" cy="115.227" r="1.5" fill="#242A38"/>
<circle cx="31.6514" cy="115.227" r="1.5" fill="#242A38"/>
<circle cx="37.6514" cy="115.227" r="1.5" fill="#FFBB02"/>
<circle cx="43.6514" cy="115.227" r="1.5" fill="#0F0E17"/>
<circle cx="49.6514" cy="115.227" r="1.5" fill="#0F0E17"/>
<circle cx="55.6514" cy="115.227" r="1.5" fill="#0F0E17"/>
<circle cx="61.6514" cy="115.227" r="1.5" fill="#0F0E17"/>
<circle cx="67.6514" cy="115.227" r="1.5" fill="#0F0E17"/>
<circle cx="73.6514" cy="115.227" r="1.5" fill="#0F0E17"/>
<circle cx="79.6514" cy="115.227" r="1.5" fill="#0F0E17"/>
<circle cx="85.6514" cy="115.227" r="1.5" fill="#0F0E17"/>
<circle cx="91.6514" cy="115.227" r="1.5" fill="#0F0E17"/>
<circle cx="97.6514" cy="115.227" r="1.5" fill="#0F0E17"/>
<circle cx="103.651" cy="115.227" r="1.5" fill="#FFBB02"/>
<circle cx="1.65137" cy="121.227" r="1.5" fill="#242A38"/>
<circle cx="7.65137" cy="121.227" r="1.5" fill="#242A38"/>
<circle cx="13.6514" cy="121.227" r="1.5" fill="#242A38"/>
<circle cx="19.6514" cy="121.227" r="1.5" fill="#242A38"/>
<circle cx="25.6514" cy="121.227" r="1.5" fill="#242A38"/>
<circle cx="31.6514" cy="121.227" r="1.5" fill="#242A38"/>
<circle cx="37.6514" cy="121.227" r="1.5" fill="#FFBB02"/>
<circle cx="43.6514" cy="121.227" r="1.5" fill="#0F0E17"/>
<circle cx="49.6514" cy="121.227" r="1.5" fill="#0F0E17"/>
<circle cx="55.6514" cy="121.227" r="1.5" fill="#0F0E17"/>
<circle cx="61.6514" cy="121.227" r="1.5" fill="#0F0E17"/>
<circle cx="67.6514" cy="121.227" r="1.5" fill="#0F0E17"/>
<circle cx="73.6514" cy="121.227" r="1.5" fill="#0F0E17"/>
<circle cx="79.6514" cy="121.227" r="1.5" fill="#0F0E17"/>
<circle cx="85.6514" cy="121.227" r="1.5" fill="#0F0E17"/>
<circle cx="91.6514" cy="121.227" r="1.5" fill="#0F0E17"/>
<circle cx="97.6514" cy="121.227" r="1.5" fill="#0F0E17"/>
<circle cx="103.651" cy="121.227" r="1.5" fill="#FFBB02"/>
<circle cx="1.65137" cy="127.227" r="1.5" fill="#242A38"/>
<circle cx="7.65137" cy="127.227" r="1.5" fill="#242A38"/>
<circle cx="13.6514" cy="127.227" r="1.5" fill="#242A38"/>
<circle cx="19.6514" cy="127.227" r="1.5" fill="#242A38"/>
<circle cx="25.6514" cy="127.227" r="1.5" fill="#242A38"/>
<circle cx="31.6514" cy="127.227" r="1.5" fill="#242A38"/>
<circle cx="37.6514" cy="127.227" r="1.5" fill="#FFBB02"/>
<circle cx="43.6514" cy="127.227" r="1.5" fill="#FFBB02"/>
<circle cx="49.6514" cy="127.227" r="1.5" fill="#FFBB02"/>
<circle cx="55.6514" cy="127.227" r="1.5" fill="#FFBB02"/>
<circle cx="61.6514" cy="127.227" r="1.5" fill="#FFBB02"/>
<circle cx="67.6514" cy="127.227" r="1.5" fill="#FFBB02"/>
<circle cx="73.6514" cy="127.227" r="1.5" fill="#FFBB02"/>
<circle cx="79.6514" cy="127.227" r="1.5" fill="#FFBB02"/>
<circle cx="85.6514" cy="127.227" r="1.5" fill="#FFBB02"/>
<circle cx="91.6514" cy="127.227" r="1.5" fill="#FFBB02"/>
<circle cx="97.6514" cy="127.227" r="1.5" fill="#FFBB02"/>
<circle cx="103.651" cy="127.227" r="1.5" fill="#FFBB02"/>
</g>
</svg>
