<svg width="17" height="16" viewBox="0 0 17 16" fill="none" xmlns="http://www.w3.org/2000/svg">
<path d="M1.30786 5.5V3C1.30786 2.46957 1.51858 1.96086 1.89365 1.58579C2.26872 1.21071 2.77743 1 3.30786 1H5.80786M10.8079 1H13.3079C13.8383 1 14.347 1.21071 14.7221 1.58579C15.0971 1.96086 15.3079 2.46957 15.3079 3V5.5M1.30786 10.5V13C1.30786 13.5304 1.51858 14.0391 1.89365 14.4142C2.26872 14.7893 2.77743 15 3.30786 15H5.80786M15.3079 10.5V13C15.3079 13.5304 15.0971 14.0391 14.7221 14.4142C14.347 14.7893 13.8383 15 13.3079 15H10.8079M2.80786 8H13.8079" stroke="white" stroke-width="1.5" stroke-linecap="round" stroke-linejoin="round"/>
</svg>
