<svg width="20" height="16" viewBox="0 0 20 16" fill="none" xmlns="http://www.w3.org/2000/svg">
<path d="M4.47461 3.75C4.0604 3.75 3.72461 4.08579 3.72461 4.5C3.72461 4.91421 4.0604 5.25 4.47461 5.25V3.75ZM7.97461 5.25C8.38882 5.25 8.72461 4.91421 8.72461 4.5C8.72461 4.08579 8.38882 3.75 7.97461 3.75V5.25ZM17.5935 10.6233L17.6363 11.372L17.6392 11.3719L17.5935 10.6233ZM18.4729 9.80688L19.2211 9.85914L19.2214 9.85366L18.4729 9.80688ZM18.4729 6.19313L19.2214 6.14634L19.2209 6.13937L18.4729 6.19313ZM17.5935 5.37675L17.6392 4.62814L17.6375 4.62804L17.5935 5.37675ZM16.5741 2.0255L16.0436 2.5556L16.0441 2.55616L16.5741 2.0255ZM2.00011 2.0255L2.53021 2.55606L2.53067 2.5556L2.00011 2.0255ZM2.00011 13.9745L2.53067 13.4444L2.53021 13.4439L2.00011 13.9745ZM16.5741 13.9745L16.0441 13.4438L16.0436 13.4444L16.5741 13.9745ZM14.9668 7.25C14.5525 7.25 14.2168 7.58579 14.2168 8C14.2168 8.41421 14.5525 8.75 14.9668 8.75V7.25ZM14.9755 8.75C15.3897 8.75 15.7255 8.41421 15.7255 8C15.7255 7.58579 15.3897 7.25 14.9755 7.25V8.75ZM4.47461 5.25H7.97461V3.75H4.47461V5.25ZM17.4535 4.625H15.1767V6.125H17.4535V4.625ZM15.1767 4.625C13.2539 4.625 11.5996 6.08455 11.5996 8H13.0996C13.0996 7.0157 13.9758 6.125 15.1767 6.125V4.625ZM11.5996 8C11.5996 9.91545 13.2548 11.375 15.1759 11.375V9.875C13.9766 9.875 13.0996 8.9843 13.0996 8H11.5996ZM15.1759 11.375H17.4535V9.875H15.1759V11.375ZM17.4535 11.375C17.5166 11.375 17.5789 11.3753 17.6363 11.372L17.5507 9.87447C17.5521 9.87439 17.5486 9.87465 17.5321 9.87482C17.5147 9.87499 17.4917 9.875 17.4535 9.875V11.375ZM17.6392 11.3719C18.443 11.3227 19.1612 10.7158 19.221 9.85914L17.7247 9.75461C17.7236 9.76939 17.7169 9.79266 17.6886 9.81894C17.6596 9.84585 17.6119 9.87073 17.5477 9.87465L17.6392 11.3719ZM19.2214 9.85366C19.225 9.79633 19.2246 9.7331 19.2246 9.67737H17.7246C17.7246 9.71264 17.7246 9.73335 17.7244 9.74887C17.7243 9.76372 17.724 9.76468 17.7243 9.76009L19.2214 9.85366ZM19.2246 9.67737V6.32263H17.7246V9.67737H19.2246ZM19.2246 6.32263C19.2246 6.2669 19.225 6.20367 19.2214 6.14634L17.7243 6.23991C17.724 6.23532 17.7243 6.23628 17.7244 6.25114C17.7246 6.26665 17.7246 6.28736 17.7246 6.32263H19.2246ZM19.2209 6.13937C19.1595 5.28511 18.4443 4.67735 17.6392 4.62815L17.5477 6.12535C17.6117 6.12927 17.6592 6.15403 17.6881 6.18089C17.7164 6.20717 17.7236 6.23097 17.7248 6.24688L19.2209 6.13937ZM17.6375 4.62804C17.5801 4.62467 17.5157 4.625 17.4535 4.625V6.125C17.4917 6.125 17.5149 6.12501 17.5325 6.12518C17.5495 6.12535 17.5522 6.12562 17.5494 6.12546L17.6375 4.62804ZM18.3183 5.34378C18.2497 3.6971 18.0331 2.42269 17.1041 1.49484L16.0441 2.55616C16.5309 3.04231 16.7517 3.7769 16.8196 5.40622L18.3183 5.34378ZM17.1047 1.4954C16.4297 0.819886 15.5762 0.524255 14.54 0.38488C13.5252 0.248406 12.2282 0.25 10.5996 0.25V1.75C12.2706 1.75 13.4485 1.75159 14.34 1.87149C15.2099 1.9885 15.6939 2.20561 16.0436 2.5556L17.1047 1.4954ZM10.5996 0.25H7.97461V1.75H10.5996V0.25ZM7.97461 0.25C6.34601 0.25 5.04897 0.248406 4.03426 0.38488C2.99799 0.524255 2.14449 0.819886 1.46955 1.4954L2.53067 2.5556C2.88036 2.20561 3.36429 1.9885 4.23421 1.87149C5.12569 1.75159 6.30359 1.75 7.97461 1.75V0.25ZM1.47001 1.49494C0.794495 2.16988 0.498864 3.02338 0.35949 4.05965C0.223015 5.07436 0.224609 6.3714 0.224609 8H1.72461C1.72461 6.32898 1.7262 5.15108 1.8461 4.2596C1.9631 3.38968 2.18022 2.90575 2.53021 2.55606L1.47001 1.49494ZM0.224609 8C0.224609 9.6286 0.223015 10.9256 0.35949 11.9403C0.498864 12.9766 0.794495 13.8301 1.47001 14.5051L2.53021 13.4439C2.18022 13.0943 1.9631 12.6103 1.8461 11.7404C1.7262 10.8489 1.72461 9.67102 1.72461 8H0.224609ZM1.46955 14.5046C2.14449 15.1801 2.99799 15.4757 4.03426 15.6151C5.04897 15.7516 6.34601 15.75 7.97461 15.75V14.25C6.30359 14.25 5.12569 14.2484 4.23421 14.1285C3.36429 14.0115 2.88036 13.7944 2.53067 13.4444L1.46955 14.5046ZM7.97461 15.75H10.5996V14.25H7.97461V15.75ZM10.5996 15.75C12.2282 15.75 13.5252 15.7516 14.54 15.6151C15.5762 15.4757 16.4297 15.1801 17.1047 14.5046L16.0436 13.4444C15.6939 13.7944 15.2099 14.0115 14.34 14.1285C13.4485 14.2484 12.2706 14.25 10.5996 14.25V15.75ZM17.1041 14.5052C18.033 13.5774 18.2506 12.3033 18.3184 10.6558L16.8196 10.5942C16.7526 12.2227 16.531 12.9576 16.0441 13.4438L17.1041 14.5052ZM14.9668 8.75H14.9755V7.25H14.9668V8.75Z" fill="#A7A9BE"/>
</svg>
