<svg width="17" height="16" viewBox="0 0 17 16" fill="none" xmlns="http://www.w3.org/2000/svg">
<path d="M1.47461 1.95454C1.47461 1.42764 1.90224 1 2.42915 1H6.24732C6.77423 1 7.20187 1.42764 7.20187 1.95454V5.77271C7.20187 6.29962 6.77423 6.72726 6.24732 6.72726H2.42915C2.17599 6.72726 1.9332 6.62669 1.75419 6.44768C1.57518 6.26867 1.47461 6.02587 1.47461 5.77271V1.95454ZM1.47461 10.2272C1.47461 9.70034 1.90224 9.2727 2.42915 9.2727H6.24732C6.77423 9.2727 7.20187 9.70034 7.20187 10.2272V14.0454C7.20187 14.5723 6.77423 15 6.24732 15H2.42915C2.17599 15 1.9332 14.8994 1.75419 14.7204C1.57518 14.5414 1.47461 14.2986 1.47461 14.0454V10.2272ZM9.74731 1.95454C9.74731 1.42764 10.1749 1 10.7019 1H14.52C15.0469 1 15.4746 1.42764 15.4746 1.95454V5.77271C15.4746 6.29962 15.0469 6.72726 14.52 6.72726H10.7019C10.4487 6.72726 10.2059 6.62669 10.0269 6.44768C9.84788 6.26867 9.74731 6.02587 9.74731 5.77271V1.95454Z" stroke="#613AE7" stroke-width="1.5" stroke-linecap="round" stroke-linejoin="round"/>
<path d="M9.74744 9.27274H10.3838V9.9091H9.74744V9.27274ZM9.74744 14.3636H10.3838V15H9.74744V14.3636ZM14.8383 9.27274H15.4747V9.9091H14.8383V9.27274ZM14.8383 14.3636H15.4747V15H14.8383V14.3636ZM12.2929 11.8182H12.9292V12.4546H12.2929V11.8182Z" stroke="#613AE7" stroke-width="1.5" stroke-linecap="round" stroke-linejoin="round"/>
</svg>
