<svg width="77" height="485" viewBox="0 0 77 485" fill="none" xmlns="http://www.w3.org/2000/svg">
<circle cx="2.97461" cy="2.06421" r="2" fill="#A7A9BE"/>
<circle cx="10.9746" cy="2.06421" r="2" fill="#A7A9BE"/>
<circle cx="18.9746" cy="2.06421" r="2" fill="#A7A9BE"/>
<circle cx="26.9746" cy="2.06421" r="2" fill="#A7A9BE"/>
<circle cx="34.9746" cy="2.06421" r="2" fill="#A7A9BE"/>
<circle cx="42.9746" cy="2.06421" r="2" fill="#A7A9BE"/>
<circle cx="50.9746" cy="2.06421" r="2" fill="#A7A9BE"/>
<circle cx="58.9746" cy="2.06421" r="2" fill="#A7A9BE"/>
<circle cx="66.9746" cy="2.06421" r="2" fill="#A7A9BE"/>
<circle cx="74.9746" cy="2.06421" r="2" fill="#A7A9BE"/>
<circle cx="2.97461" cy="10.0642" r="2" fill="#A7A9BE"/>
<circle cx="10.9746" cy="10.0642" r="2" fill="#A7A9BE"/>
<circle cx="18.9746" cy="10.0642" r="2" fill="#A7A9BE"/>
<circle cx="26.9746" cy="10.0642" r="2" fill="#A7A9BE"/>
<circle cx="34.9746" cy="10.0642" r="2" fill="#A7A9BE"/>
<circle cx="42.9746" cy="10.0642" r="2" fill="#A7A9BE"/>
<circle cx="50.9746" cy="10.0642" r="2" fill="#A7A9BE"/>
<circle cx="58.9746" cy="10.0642" r="2" fill="#A7A9BE"/>
<circle cx="66.9746" cy="10.0642" r="2" fill="#A7A9BE"/>
<circle cx="74.9746" cy="10.0642" r="2" fill="#A7A9BE"/>
<circle cx="2.97461" cy="18.0642" r="2" fill="#A7A9BE"/>
<circle cx="10.9746" cy="18.0642" r="2" fill="#A7A9BE"/>
<circle cx="18.9746" cy="18.0642" r="2" fill="#A7A9BE"/>
<circle cx="26.9746" cy="18.0642" r="2" fill="#A7A9BE"/>
<circle cx="34.9746" cy="18.0642" r="2" fill="#A7A9BE"/>
<circle cx="42.9746" cy="18.0642" r="2" fill="#A7A9BE"/>
<circle cx="50.9746" cy="18.0642" r="2" fill="#A7A9BE"/>
<circle cx="58.9746" cy="18.0642" r="2" fill="#A7A9BE"/>
<circle cx="66.9746" cy="18.0642" r="2" fill="#A7A9BE"/>
<circle cx="74.9746" cy="18.0642" r="2" fill="#A7A9BE"/>
<circle cx="2.97461" cy="26.0642" r="2" fill="#A7A9BE"/>
<circle cx="10.9746" cy="26.0642" r="2" fill="#A7A9BE"/>
<circle cx="18.9746" cy="26.0642" r="2" fill="#A7A9BE"/>
<circle cx="26.9746" cy="26.0642" r="2" fill="#A7A9BE"/>
<circle cx="34.9746" cy="26.0642" r="2" fill="#A7A9BE"/>
<circle cx="42.9746" cy="26.0642" r="2" fill="#A7A9BE"/>
<circle cx="50.9746" cy="26.0642" r="2" fill="#A7A9BE"/>
<circle cx="58.9746" cy="26.0642" r="2" fill="#A7A9BE"/>
<circle cx="66.9746" cy="26.0642" r="2" fill="#A7A9BE"/>
<circle cx="74.9746" cy="26.0642" r="2" fill="#A7A9BE"/>
<circle cx="2.97461" cy="34.0642" r="2" fill="#A7A9BE"/>
<circle cx="10.9746" cy="34.0642" r="2" fill="#A7A9BE"/>
<circle cx="18.9746" cy="34.0642" r="2" fill="#A7A9BE"/>
<circle cx="26.9746" cy="34.0642" r="2" fill="#A7A9BE"/>
<circle cx="34.9746" cy="34.0642" r="2" fill="#A7A9BE"/>
<circle cx="42.9746" cy="34.0642" r="2" fill="#A7A9BE"/>
<circle cx="50.9746" cy="34.0642" r="2" fill="#A7A9BE"/>
<circle cx="58.9746" cy="34.0642" r="2" fill="#A7A9BE"/>
<circle cx="66.9746" cy="34.0642" r="2" fill="#A7A9BE"/>
<circle cx="74.9746" cy="34.0642" r="2" fill="#A7A9BE"/>
<circle cx="2.97461" cy="42.0642" r="2" fill="#A7A9BE"/>
<circle cx="10.9746" cy="42.0642" r="2" fill="#A7A9BE"/>
<circle cx="18.9746" cy="42.0642" r="2" fill="#A7A9BE"/>
<circle cx="26.9746" cy="42.0642" r="2" fill="#A7A9BE"/>
<circle cx="34.9746" cy="42.0642" r="2" fill="#A7A9BE"/>
<circle cx="42.9746" cy="42.0642" r="2" fill="#A7A9BE"/>
<circle cx="50.9746" cy="42.0642" r="2" fill="#A7A9BE"/>
<circle cx="58.9746" cy="42.0642" r="2" fill="#A7A9BE"/>
<circle cx="66.9746" cy="42.0642" r="2" fill="#A7A9BE"/>
<circle cx="74.9746" cy="42.0642" r="2" fill="#A7A9BE"/>
<circle cx="2.97461" cy="50.0642" r="2" fill="#A7A9BE"/>
<circle cx="10.9746" cy="50.0642" r="2" fill="#A7A9BE"/>
<circle cx="18.9746" cy="50.0642" r="2" fill="#A7A9BE"/>
<circle cx="26.9746" cy="50.0642" r="2" fill="#A7A9BE"/>
<circle cx="34.9746" cy="50.0642" r="2" fill="#A7A9BE"/>
<circle cx="42.9746" cy="50.0642" r="2" fill="#A7A9BE"/>
<circle cx="50.9746" cy="50.0642" r="2" fill="#A7A9BE"/>
<circle cx="58.9746" cy="50.0642" r="2" fill="#A7A9BE"/>
<circle cx="66.9746" cy="50.0642" r="2" fill="#A7A9BE"/>
<circle cx="74.9746" cy="50.0642" r="2" fill="#A7A9BE"/>
<circle cx="2.97461" cy="58.0642" r="2" fill="#A7A9BE"/>
<circle cx="10.9746" cy="58.0642" r="2" fill="#A7A9BE"/>
<circle cx="18.9746" cy="58.0642" r="2" fill="#A7A9BE"/>
<circle cx="26.9746" cy="58.0642" r="2" fill="#A7A9BE"/>
<circle cx="34.9746" cy="58.0642" r="2" fill="#A7A9BE"/>
<circle cx="42.9746" cy="58.0642" r="2" fill="#A7A9BE"/>
<circle cx="50.9746" cy="58.0642" r="2" fill="#A7A9BE"/>
<circle cx="58.9746" cy="58.0642" r="2" fill="#A7A9BE"/>
<circle cx="66.9746" cy="58.0642" r="2" fill="#A7A9BE"/>
<circle cx="74.9746" cy="58.0642" r="2" fill="#A7A9BE"/>
<circle cx="2.97461" cy="66.0642" r="2" fill="#A7A9BE"/>
<circle cx="10.9746" cy="66.0642" r="2" fill="#A7A9BE"/>
<circle cx="18.9746" cy="66.0642" r="2" fill="#A7A9BE"/>
<circle cx="26.9746" cy="66.0642" r="2" fill="#A7A9BE"/>
<circle cx="34.9746" cy="66.0642" r="2" fill="#A7A9BE"/>
<circle cx="42.9746" cy="66.0642" r="2" fill="#A7A9BE"/>
<circle cx="50.9746" cy="66.0642" r="2" fill="#A7A9BE"/>
<circle cx="58.9746" cy="66.0642" r="2" fill="#A7A9BE"/>
<circle cx="66.9746" cy="66.0642" r="2" fill="#A7A9BE"/>
<circle cx="74.9746" cy="66.0642" r="2" fill="#A7A9BE"/>
<circle cx="2.97461" cy="74.0642" r="2" fill="#A7A9BE"/>
<circle cx="10.9746" cy="74.0642" r="2" fill="#A7A9BE"/>
<circle cx="18.9746" cy="74.0642" r="2" fill="#A7A9BE"/>
<circle cx="26.9746" cy="74.0642" r="2" fill="#A7A9BE"/>
<circle cx="34.9746" cy="74.0642" r="2" fill="#A7A9BE"/>
<circle cx="42.9746" cy="74.0642" r="2" fill="#A7A9BE"/>
<circle cx="50.9746" cy="74.0642" r="2" fill="#A7A9BE"/>
<circle cx="58.9746" cy="74.0642" r="2" fill="#A7A9BE"/>
<circle cx="66.9746" cy="74.0642" r="2" fill="#A7A9BE"/>
<circle cx="74.9746" cy="74.0642" r="2" fill="#A7A9BE"/>
<circle cx="2.97461" cy="82.0642" r="2" fill="#A7A9BE"/>
<circle cx="10.9746" cy="82.0642" r="2" fill="#A7A9BE"/>
<circle cx="18.9746" cy="82.0642" r="2" fill="#A7A9BE"/>
<circle cx="26.9746" cy="82.0642" r="2" fill="#A7A9BE"/>
<circle cx="34.9746" cy="82.0642" r="2" fill="#A7A9BE"/>
<circle cx="42.9746" cy="82.0642" r="2" fill="#A7A9BE"/>
<circle cx="50.9746" cy="82.0642" r="2" fill="#A7A9BE"/>
<circle cx="58.9746" cy="82.0642" r="2" fill="#A7A9BE"/>
<circle cx="66.9746" cy="82.0642" r="2" fill="#A7A9BE"/>
<circle cx="74.9746" cy="82.0642" r="2" fill="#A7A9BE"/>
<circle cx="2.97461" cy="90.0642" r="2" fill="#A7A9BE"/>
<circle cx="10.9746" cy="90.0642" r="2" fill="#A7A9BE"/>
<circle cx="18.9746" cy="90.0642" r="2" fill="#A7A9BE"/>
<circle cx="26.9746" cy="90.0642" r="2" fill="#A7A9BE"/>
<circle cx="34.9746" cy="90.0642" r="2" fill="#A7A9BE"/>
<circle cx="42.9746" cy="90.0642" r="2" fill="#A7A9BE"/>
<circle cx="50.9746" cy="90.0642" r="2" fill="#A7A9BE"/>
<circle cx="58.9746" cy="90.0642" r="2" fill="#A7A9BE"/>
<circle cx="66.9746" cy="90.0642" r="2" fill="#A7A9BE"/>
<circle cx="74.9746" cy="90.0642" r="2" fill="#A7A9BE"/>
<circle cx="2.97461" cy="98.0642" r="2" fill="#A7A9BE"/>
<circle cx="10.9746" cy="98.0642" r="2" fill="#A7A9BE"/>
<circle cx="18.9746" cy="98.0642" r="2" fill="#A7A9BE"/>
<circle cx="26.9746" cy="98.0642" r="2" fill="#A7A9BE"/>
<circle cx="34.9746" cy="98.0642" r="2" fill="#A7A9BE"/>
<circle cx="42.9746" cy="98.0642" r="2" fill="#A7A9BE"/>
<circle cx="50.9746" cy="98.0642" r="2" fill="#A7A9BE"/>
<circle cx="58.9746" cy="98.0642" r="2" fill="#A7A9BE"/>
<circle cx="66.9746" cy="98.0642" r="2" fill="#A7A9BE"/>
<circle cx="74.9746" cy="98.0642" r="2" fill="#A7A9BE"/>
<circle cx="2.97461" cy="106.064" r="2" fill="#A7A9BE"/>
<circle cx="10.9746" cy="106.064" r="2" fill="#A7A9BE"/>
<circle cx="18.9746" cy="106.064" r="2" fill="#A7A9BE"/>
<circle cx="26.9746" cy="106.064" r="2" fill="#A7A9BE"/>
<circle cx="34.9746" cy="106.064" r="2" fill="#A7A9BE"/>
<circle cx="42.9746" cy="106.064" r="2" fill="#A7A9BE"/>
<circle cx="50.9746" cy="106.064" r="2" fill="#A7A9BE"/>
<circle cx="58.9746" cy="106.064" r="2" fill="#A7A9BE"/>
<circle cx="66.9746" cy="106.064" r="2" fill="#A7A9BE"/>
<circle cx="74.9746" cy="106.064" r="2" fill="#A7A9BE"/>
<circle cx="2.97461" cy="114.064" r="2" fill="#A7A9BE"/>
<circle cx="10.9746" cy="114.064" r="2" fill="#A7A9BE"/>
<circle cx="18.9746" cy="114.064" r="2" fill="#A7A9BE"/>
<circle cx="26.9746" cy="114.064" r="2" fill="#A7A9BE"/>
<circle cx="34.9746" cy="114.064" r="2" fill="#A7A9BE"/>
<circle cx="42.9746" cy="114.064" r="2" fill="#A7A9BE"/>
<circle cx="50.9746" cy="114.064" r="2" fill="#A7A9BE"/>
<circle cx="58.9746" cy="114.064" r="2" fill="#A7A9BE"/>
<circle cx="66.9746" cy="114.064" r="2" fill="#A7A9BE"/>
<circle cx="74.9746" cy="114.064" r="2" fill="#A7A9BE"/>
<circle cx="2.97461" cy="122.064" r="2" fill="#A7A9BE"/>
<circle cx="10.9746" cy="122.064" r="2" fill="#A7A9BE"/>
<circle cx="18.9746" cy="122.064" r="2" fill="#A7A9BE"/>
<circle cx="26.9746" cy="122.064" r="2" fill="#A7A9BE"/>
<circle cx="34.9746" cy="122.064" r="2" fill="#A7A9BE"/>
<circle cx="42.9746" cy="122.064" r="2" fill="#A7A9BE"/>
<circle cx="50.9746" cy="122.064" r="2" fill="#A7A9BE"/>
<circle cx="58.9746" cy="122.064" r="2" fill="#A7A9BE"/>
<circle cx="66.9746" cy="122.064" r="2" fill="#A7A9BE"/>
<circle cx="74.9746" cy="122.064" r="2" fill="#A7A9BE"/>
<circle cx="2.97461" cy="130.064" r="2" fill="#A7A9BE"/>
<circle cx="10.9746" cy="130.064" r="2" fill="#A7A9BE"/>
<circle cx="18.9746" cy="130.064" r="2" fill="#A7A9BE"/>
<circle cx="26.9746" cy="130.064" r="2" fill="#A7A9BE"/>
<circle cx="34.9746" cy="130.064" r="2" fill="#A7A9BE"/>
<circle cx="42.9746" cy="130.064" r="2" fill="#A7A9BE"/>
<circle cx="50.9746" cy="130.064" r="2" fill="#A7A9BE"/>
<circle cx="58.9746" cy="130.064" r="2" fill="#A7A9BE"/>
<circle cx="66.9746" cy="130.064" r="2" fill="#A7A9BE"/>
<circle cx="74.9746" cy="130.064" r="2" fill="#A7A9BE"/>
<circle cx="2.97461" cy="138.064" r="2" fill="#A7A9BE"/>
<circle cx="10.9746" cy="138.064" r="2" fill="#A7A9BE"/>
<circle cx="18.9746" cy="138.064" r="2" fill="#A7A9BE"/>
<circle cx="26.9746" cy="138.064" r="2" fill="#A7A9BE"/>
<circle cx="34.9746" cy="138.064" r="2" fill="#A7A9BE"/>
<circle cx="42.9746" cy="138.064" r="2" fill="#A7A9BE"/>
<circle cx="50.9746" cy="138.064" r="2" fill="#A7A9BE"/>
<circle cx="58.9746" cy="138.064" r="2" fill="#A7A9BE"/>
<circle cx="66.9746" cy="138.064" r="2" fill="#A7A9BE"/>
<circle cx="74.9746" cy="138.064" r="2" fill="#A7A9BE"/>
<circle cx="2.97461" cy="146.064" r="2" fill="#A7A9BE"/>
<circle cx="10.9746" cy="146.064" r="2" fill="#A7A9BE"/>
<circle cx="18.9746" cy="146.064" r="2" fill="#A7A9BE"/>
<circle cx="26.9746" cy="146.064" r="2" fill="#A7A9BE"/>
<circle cx="34.9746" cy="146.064" r="2" fill="#A7A9BE"/>
<circle cx="42.9746" cy="146.064" r="2" fill="#A7A9BE"/>
<circle cx="50.9746" cy="146.064" r="2" fill="#A7A9BE"/>
<circle cx="58.9746" cy="146.064" r="2" fill="#A7A9BE"/>
<circle cx="66.9746" cy="146.064" r="2" fill="#A7A9BE"/>
<circle cx="74.9746" cy="146.064" r="2" fill="#A7A9BE"/>
<circle cx="2.97461" cy="154.064" r="2" fill="#A7A9BE"/>
<circle cx="10.9746" cy="154.064" r="2" fill="#A7A9BE"/>
<circle cx="18.9746" cy="154.064" r="2" fill="#A7A9BE"/>
<circle cx="26.9746" cy="154.064" r="2" fill="#A7A9BE"/>
<circle cx="34.9746" cy="154.064" r="2" fill="#A7A9BE"/>
<circle cx="42.9746" cy="154.064" r="2" fill="#A7A9BE"/>
<circle cx="50.9746" cy="154.064" r="2" fill="#A7A9BE"/>
<circle cx="58.9746" cy="154.064" r="2" fill="#A7A9BE"/>
<circle cx="66.9746" cy="154.064" r="2" fill="#A7A9BE"/>
<circle cx="74.9746" cy="154.064" r="2" fill="#A7A9BE"/>
<circle cx="2.97461" cy="162.064" r="2" fill="#A7A9BE"/>
<circle cx="10.9746" cy="162.064" r="2" fill="#A7A9BE"/>
<circle cx="18.9746" cy="162.064" r="2" fill="#A7A9BE"/>
<circle cx="26.9746" cy="162.064" r="2" fill="#A7A9BE"/>
<circle cx="34.9746" cy="162.064" r="2" fill="#A7A9BE"/>
<circle cx="42.9746" cy="162.064" r="2" fill="#A7A9BE"/>
<circle cx="50.9746" cy="162.064" r="2" fill="#A7A9BE"/>
<circle cx="58.9746" cy="162.064" r="2" fill="#A7A9BE"/>
<circle cx="66.9746" cy="162.064" r="2" fill="#A7A9BE"/>
<circle cx="74.9746" cy="162.064" r="2" fill="#A7A9BE"/>
<circle cx="2.97461" cy="170.064" r="2" fill="#A7A9BE"/>
<circle cx="10.9746" cy="170.064" r="2" fill="#A7A9BE"/>
<circle cx="18.9746" cy="170.064" r="2" fill="#A7A9BE"/>
<circle cx="26.9746" cy="170.064" r="2" fill="#A7A9BE"/>
<circle cx="34.9746" cy="170.064" r="2" fill="#A7A9BE"/>
<circle cx="42.9746" cy="170.064" r="2" fill="#A7A9BE"/>
<circle cx="50.9746" cy="170.064" r="2" fill="#A7A9BE"/>
<circle cx="58.9746" cy="170.064" r="2" fill="#A7A9BE"/>
<circle cx="66.9746" cy="170.064" r="2" fill="#A7A9BE"/>
<circle cx="74.9746" cy="170.064" r="2" fill="#A7A9BE"/>
<circle cx="2.97461" cy="178.064" r="2" fill="#A7A9BE"/>
<circle cx="10.9746" cy="178.064" r="2" fill="#A7A9BE"/>
<circle cx="18.9746" cy="178.064" r="2" fill="#A7A9BE"/>
<circle cx="26.9746" cy="178.064" r="2" fill="#A7A9BE"/>
<circle cx="34.9746" cy="178.064" r="2" fill="#A7A9BE"/>
<circle cx="42.9746" cy="178.064" r="2" fill="#A7A9BE"/>
<circle cx="50.9746" cy="178.064" r="2" fill="#A7A9BE"/>
<circle cx="58.9746" cy="178.064" r="2" fill="#A7A9BE"/>
<circle cx="66.9746" cy="178.064" r="2" fill="#A7A9BE"/>
<circle cx="74.9746" cy="178.064" r="2" fill="#A7A9BE"/>
<circle cx="2.97461" cy="186.064" r="2" fill="#A7A9BE"/>
<circle cx="10.9746" cy="186.064" r="2" fill="#A7A9BE"/>
<circle cx="18.9746" cy="186.064" r="2" fill="#A7A9BE"/>
<circle cx="26.9746" cy="186.064" r="2" fill="#A7A9BE"/>
<circle cx="34.9746" cy="186.064" r="2" fill="#A7A9BE"/>
<circle cx="42.9746" cy="186.064" r="2" fill="#A7A9BE"/>
<circle cx="50.9746" cy="186.064" r="2" fill="#A7A9BE"/>
<circle cx="58.9746" cy="186.064" r="2" fill="#A7A9BE"/>
<circle cx="66.9746" cy="186.064" r="2" fill="#A7A9BE"/>
<circle cx="74.9746" cy="186.064" r="2" fill="#A7A9BE"/>
<circle cx="2.97461" cy="194.064" r="2" fill="#A7A9BE"/>
<circle cx="10.9746" cy="194.064" r="2" fill="#A7A9BE"/>
<circle cx="18.9746" cy="194.064" r="2" fill="#A7A9BE"/>
<circle cx="26.9746" cy="194.064" r="2" fill="#A7A9BE"/>
<circle cx="34.9746" cy="194.064" r="2" fill="#A7A9BE"/>
<circle cx="42.9746" cy="194.064" r="2" fill="#A7A9BE"/>
<circle cx="50.9746" cy="194.064" r="2" fill="#A7A9BE"/>
<circle cx="58.9746" cy="194.064" r="2" fill="#A7A9BE"/>
<circle cx="66.9746" cy="194.064" r="2" fill="#A7A9BE"/>
<circle cx="74.9746" cy="194.064" r="2" fill="#A7A9BE"/>
<circle cx="2.97461" cy="202.064" r="2" fill="#A7A9BE"/>
<circle cx="10.9746" cy="202.064" r="2" fill="#A7A9BE"/>
<circle cx="18.9746" cy="202.064" r="2" fill="#A7A9BE"/>
<circle cx="26.9746" cy="202.064" r="2" fill="#A7A9BE"/>
<circle cx="34.9746" cy="202.064" r="2" fill="#A7A9BE"/>
<circle cx="42.9746" cy="202.064" r="2" fill="#A7A9BE"/>
<circle cx="50.9746" cy="202.064" r="2" fill="#A7A9BE"/>
<circle cx="58.9746" cy="202.064" r="2" fill="#A7A9BE"/>
<circle cx="66.9746" cy="202.064" r="2" fill="#A7A9BE"/>
<circle cx="74.9746" cy="202.064" r="2" fill="#A7A9BE"/>
<circle cx="2.97461" cy="210.064" r="2" fill="#A7A9BE"/>
<circle cx="10.9746" cy="210.064" r="2" fill="#A7A9BE"/>
<circle cx="18.9746" cy="210.064" r="2" fill="#A7A9BE"/>
<circle cx="26.9746" cy="210.064" r="2" fill="#A7A9BE"/>
<circle cx="34.9746" cy="210.064" r="2" fill="#A7A9BE"/>
<circle cx="42.9746" cy="210.064" r="2" fill="#A7A9BE"/>
<circle cx="50.9746" cy="210.064" r="2" fill="#A7A9BE"/>
<circle cx="58.9746" cy="210.064" r="2" fill="#A7A9BE"/>
<circle cx="66.9746" cy="210.064" r="2" fill="#A7A9BE"/>
<circle cx="74.9746" cy="210.064" r="2" fill="#A7A9BE"/>
<circle cx="2.97461" cy="218.064" r="2" fill="#A7A9BE"/>
<circle cx="10.9746" cy="218.064" r="2" fill="#A7A9BE"/>
<circle cx="18.9746" cy="218.064" r="2" fill="#A7A9BE"/>
<circle cx="26.9746" cy="218.064" r="2" fill="#A7A9BE"/>
<circle cx="34.9746" cy="218.064" r="2" fill="#A7A9BE"/>
<circle cx="42.9746" cy="218.064" r="2" fill="#A7A9BE"/>
<circle cx="50.9746" cy="218.064" r="2" fill="#A7A9BE"/>
<circle cx="58.9746" cy="218.064" r="2" fill="#A7A9BE"/>
<circle cx="66.9746" cy="218.064" r="2" fill="#A7A9BE"/>
<circle cx="74.9746" cy="218.064" r="2" fill="#A7A9BE"/>
<circle cx="2.97461" cy="226.064" r="2" fill="#A7A9BE"/>
<circle cx="10.9746" cy="226.064" r="2" fill="#A7A9BE"/>
<circle cx="18.9746" cy="226.064" r="2" fill="#A7A9BE"/>
<circle cx="26.9746" cy="226.064" r="2" fill="#A7A9BE"/>
<circle cx="34.9746" cy="226.064" r="2" fill="#A7A9BE"/>
<circle cx="42.9746" cy="226.064" r="2" fill="#A7A9BE"/>
<circle cx="50.9746" cy="226.064" r="2" fill="#A7A9BE"/>
<circle cx="58.9746" cy="226.064" r="2" fill="#A7A9BE"/>
<circle cx="66.9746" cy="226.064" r="2" fill="#A7A9BE"/>
<circle cx="74.9746" cy="226.064" r="2" fill="#A7A9BE"/>
<circle cx="2.97461" cy="234.064" r="2" fill="#A7A9BE"/>
<circle cx="10.9746" cy="234.064" r="2" fill="#A7A9BE"/>
<circle cx="18.9746" cy="234.064" r="2" fill="#A7A9BE"/>
<circle cx="26.9746" cy="234.064" r="2" fill="#A7A9BE"/>
<circle cx="34.9746" cy="234.064" r="2" fill="#A7A9BE"/>
<circle cx="42.9746" cy="234.064" r="2" fill="#A7A9BE"/>
<circle cx="50.9746" cy="234.064" r="2" fill="#A7A9BE"/>
<circle cx="58.9746" cy="234.064" r="2" fill="#A7A9BE"/>
<circle cx="66.9746" cy="234.064" r="2" fill="#A7A9BE"/>
<circle cx="74.9746" cy="234.064" r="2" fill="#A7A9BE"/>
<circle cx="2.97461" cy="242.064" r="2" fill="#A7A9BE"/>
<circle cx="10.9746" cy="242.064" r="2" fill="#A7A9BE"/>
<circle cx="18.9746" cy="242.064" r="2" fill="#A7A9BE"/>
<circle cx="26.9746" cy="242.064" r="2" fill="#A7A9BE"/>
<circle cx="34.9746" cy="242.064" r="2" fill="#A7A9BE"/>
<circle cx="42.9746" cy="242.064" r="2" fill="#A7A9BE"/>
<circle cx="50.9746" cy="242.064" r="2" fill="#A7A9BE"/>
<circle cx="58.9746" cy="242.064" r="2" fill="#A7A9BE"/>
<circle cx="66.9746" cy="242.064" r="2" fill="#A7A9BE"/>
<circle cx="74.9746" cy="242.064" r="2" fill="#A7A9BE"/>
<circle cx="2.97461" cy="250.064" r="2" fill="#A7A9BE"/>
<circle cx="10.9746" cy="250.064" r="2" fill="#A7A9BE"/>
<circle cx="18.9746" cy="250.064" r="2" fill="#A7A9BE"/>
<circle cx="26.9746" cy="250.064" r="2" fill="#A7A9BE"/>
<circle cx="34.9746" cy="250.064" r="2" fill="#A7A9BE"/>
<circle cx="42.9746" cy="250.064" r="2" fill="#A7A9BE"/>
<circle cx="50.9746" cy="250.064" r="2" fill="#A7A9BE"/>
<circle cx="58.9746" cy="250.064" r="2" fill="#A7A9BE"/>
<circle cx="66.9746" cy="250.064" r="2" fill="#A7A9BE"/>
<circle cx="74.9746" cy="250.064" r="2" fill="#A7A9BE"/>
<circle cx="2.97461" cy="258.064" r="2" fill="#A7A9BE"/>
<circle cx="10.9746" cy="258.064" r="2" fill="#A7A9BE"/>
<circle cx="18.9746" cy="258.064" r="2" fill="#A7A9BE"/>
<circle cx="26.9746" cy="258.064" r="2" fill="#A7A9BE"/>
<circle cx="34.9746" cy="258.064" r="2" fill="#A7A9BE"/>
<circle cx="42.9746" cy="258.064" r="2" fill="#A7A9BE"/>
<circle cx="50.9746" cy="258.064" r="2" fill="#A7A9BE"/>
<circle cx="58.9746" cy="258.064" r="2" fill="#A7A9BE"/>
<circle cx="66.9746" cy="258.064" r="2" fill="#A7A9BE"/>
<circle cx="74.9746" cy="258.064" r="2" fill="#A7A9BE"/>
<circle cx="2.97461" cy="266.064" r="2" fill="#A7A9BE"/>
<circle cx="10.9746" cy="266.064" r="2" fill="#A7A9BE"/>
<circle cx="18.9746" cy="266.064" r="2" fill="#A7A9BE"/>
<circle cx="26.9746" cy="266.064" r="2" fill="#A7A9BE"/>
<circle cx="34.9746" cy="266.064" r="2" fill="#A7A9BE"/>
<circle cx="42.9746" cy="266.064" r="2" fill="#A7A9BE"/>
<circle cx="50.9746" cy="266.064" r="2" fill="#A7A9BE"/>
<circle cx="58.9746" cy="266.064" r="2" fill="#A7A9BE"/>
<circle cx="66.9746" cy="266.064" r="2" fill="#A7A9BE"/>
<circle cx="74.9746" cy="266.064" r="2" fill="#A7A9BE"/>
<circle cx="2.97461" cy="274.064" r="2" fill="#A7A9BE"/>
<circle cx="10.9746" cy="274.064" r="2" fill="#A7A9BE"/>
<circle cx="18.9746" cy="274.064" r="2" fill="#A7A9BE"/>
<circle cx="26.9746" cy="274.064" r="2" fill="#A7A9BE"/>
<circle cx="34.9746" cy="274.064" r="2" fill="#A7A9BE"/>
<circle cx="42.9746" cy="274.064" r="2" fill="#A7A9BE"/>
<circle cx="50.9746" cy="274.064" r="2" fill="#A7A9BE"/>
<circle cx="58.9746" cy="274.064" r="2" fill="#A7A9BE"/>
<circle cx="66.9746" cy="274.064" r="2" fill="#A7A9BE"/>
<circle cx="74.9746" cy="274.064" r="2" fill="#A7A9BE"/>
<circle cx="2.97461" cy="282.064" r="2" fill="#A7A9BE"/>
<circle cx="10.9746" cy="282.064" r="2" fill="#A7A9BE"/>
<circle cx="18.9746" cy="282.064" r="2" fill="#A7A9BE"/>
<circle cx="26.9746" cy="282.064" r="2" fill="#A7A9BE"/>
<circle cx="34.9746" cy="282.064" r="2" fill="#A7A9BE"/>
<circle cx="42.9746" cy="282.064" r="2" fill="#A7A9BE"/>
<circle cx="50.9746" cy="282.064" r="2" fill="#A7A9BE"/>
<circle cx="58.9746" cy="282.064" r="2" fill="#A7A9BE"/>
<circle cx="66.9746" cy="282.064" r="2" fill="#A7A9BE"/>
<circle cx="74.9746" cy="282.064" r="2" fill="#A7A9BE"/>
<circle cx="2.97461" cy="290.064" r="2" fill="#A7A9BE"/>
<circle cx="10.9746" cy="290.064" r="2" fill="#A7A9BE"/>
<circle cx="18.9746" cy="290.064" r="2" fill="#A7A9BE"/>
<circle cx="26.9746" cy="290.064" r="2" fill="#A7A9BE"/>
<circle cx="34.9746" cy="290.064" r="2" fill="#A7A9BE"/>
<circle cx="42.9746" cy="290.064" r="2" fill="#A7A9BE"/>
<circle cx="50.9746" cy="290.064" r="2" fill="#A7A9BE"/>
<circle cx="58.9746" cy="290.064" r="2" fill="#A7A9BE"/>
<circle cx="66.9746" cy="290.064" r="2" fill="#A7A9BE"/>
<circle cx="74.9746" cy="290.064" r="2" fill="#A7A9BE"/>
<circle cx="2.97461" cy="298.064" r="2" fill="#A7A9BE"/>
<circle cx="10.9746" cy="298.064" r="2" fill="#A7A9BE"/>
<circle cx="18.9746" cy="298.064" r="2" fill="#A7A9BE"/>
<circle cx="26.9746" cy="298.064" r="2" fill="#A7A9BE"/>
<circle cx="34.9746" cy="298.064" r="2" fill="#A7A9BE"/>
<circle cx="42.9746" cy="298.064" r="2" fill="#A7A9BE"/>
<circle cx="50.9746" cy="298.064" r="2" fill="#A7A9BE"/>
<circle cx="58.9746" cy="298.064" r="2" fill="#A7A9BE"/>
<circle cx="66.9746" cy="298.064" r="2" fill="#A7A9BE"/>
<circle cx="74.9746" cy="298.064" r="2" fill="#A7A9BE"/>
<circle cx="2.97461" cy="306.064" r="2" fill="#A7A9BE"/>
<circle cx="10.9746" cy="306.064" r="2" fill="#A7A9BE"/>
<circle cx="18.9746" cy="306.064" r="2" fill="#A7A9BE"/>
<circle cx="26.9746" cy="306.064" r="2" fill="#A7A9BE"/>
<circle cx="34.9746" cy="306.064" r="2" fill="#A7A9BE"/>
<circle cx="42.9746" cy="306.064" r="2" fill="#A7A9BE"/>
<circle cx="50.9746" cy="306.064" r="2" fill="#A7A9BE"/>
<circle cx="58.9746" cy="306.064" r="2" fill="#A7A9BE"/>
<circle cx="66.9746" cy="306.064" r="2" fill="#A7A9BE"/>
<circle cx="74.9746" cy="306.064" r="2" fill="#A7A9BE"/>
<circle cx="2.97461" cy="314.064" r="2" fill="#A7A9BE"/>
<circle cx="10.9746" cy="314.064" r="2" fill="#A7A9BE"/>
<circle cx="18.9746" cy="314.064" r="2" fill="#A7A9BE"/>
<circle cx="26.9746" cy="314.064" r="2" fill="#A7A9BE"/>
<circle cx="34.9746" cy="314.064" r="2" fill="#A7A9BE"/>
<circle cx="42.9746" cy="314.064" r="2" fill="#A7A9BE"/>
<circle cx="50.9746" cy="314.064" r="2" fill="#A7A9BE"/>
<circle cx="58.9746" cy="314.064" r="2" fill="#A7A9BE"/>
<circle cx="66.9746" cy="314.064" r="2" fill="#A7A9BE"/>
<circle cx="74.9746" cy="314.064" r="2" fill="#A7A9BE"/>
<circle cx="2.97461" cy="322.064" r="2" fill="#A7A9BE"/>
<circle cx="10.9746" cy="322.064" r="2" fill="#A7A9BE"/>
<circle cx="18.9746" cy="322.064" r="2" fill="#A7A9BE"/>
<circle cx="26.9746" cy="322.064" r="2" fill="#A7A9BE"/>
<circle cx="34.9746" cy="322.064" r="2" fill="#A7A9BE"/>
<circle cx="42.9746" cy="322.064" r="2" fill="#A7A9BE"/>
<circle cx="50.9746" cy="322.064" r="2" fill="#A7A9BE"/>
<circle cx="58.9746" cy="322.064" r="2" fill="#A7A9BE"/>
<circle cx="66.9746" cy="322.064" r="2" fill="#A7A9BE"/>
<circle cx="74.9746" cy="322.064" r="2" fill="#A7A9BE"/>
<circle cx="2.97461" cy="330.064" r="2" fill="#A7A9BE"/>
<circle cx="10.9746" cy="330.064" r="2" fill="#A7A9BE"/>
<circle cx="18.9746" cy="330.064" r="2" fill="#A7A9BE"/>
<circle cx="26.9746" cy="330.064" r="2" fill="#A7A9BE"/>
<circle cx="34.9746" cy="330.064" r="2" fill="#A7A9BE"/>
<circle cx="42.9746" cy="330.064" r="2" fill="#A7A9BE"/>
<circle cx="50.9746" cy="330.064" r="2" fill="#A7A9BE"/>
<circle cx="58.9746" cy="330.064" r="2" fill="#A7A9BE"/>
<circle cx="66.9746" cy="330.064" r="2" fill="#A7A9BE"/>
<circle cx="74.9746" cy="330.064" r="2" fill="#A7A9BE"/>
<circle cx="2.97461" cy="338.064" r="2" fill="#A7A9BE"/>
<circle cx="10.9746" cy="338.064" r="2" fill="#A7A9BE"/>
<circle cx="18.9746" cy="338.064" r="2" fill="#A7A9BE"/>
<circle cx="26.9746" cy="338.064" r="2" fill="#A7A9BE"/>
<circle cx="34.9746" cy="338.064" r="2" fill="#A7A9BE"/>
<circle cx="42.9746" cy="338.064" r="2" fill="#A7A9BE"/>
<circle cx="50.9746" cy="338.064" r="2" fill="#A7A9BE"/>
<circle cx="58.9746" cy="338.064" r="2" fill="#A7A9BE"/>
<circle cx="66.9746" cy="338.064" r="2" fill="#A7A9BE"/>
<circle cx="74.9746" cy="338.064" r="2" fill="#A7A9BE"/>
<circle cx="2.97461" cy="346.064" r="2" fill="#A7A9BE"/>
<circle cx="10.9746" cy="346.064" r="2" fill="#A7A9BE"/>
<circle cx="18.9746" cy="346.064" r="2" fill="#A7A9BE"/>
<circle cx="26.9746" cy="346.064" r="2" fill="#A7A9BE"/>
<circle cx="34.9746" cy="346.064" r="2" fill="#A7A9BE"/>
<circle cx="42.9746" cy="346.064" r="2" fill="#A7A9BE"/>
<circle cx="50.9746" cy="346.064" r="2" fill="#A7A9BE"/>
<circle cx="58.9746" cy="346.064" r="2" fill="#A7A9BE"/>
<circle cx="66.9746" cy="346.064" r="2" fill="#A7A9BE"/>
<circle cx="74.9746" cy="346.064" r="2" fill="#A7A9BE"/>
<circle cx="2.97461" cy="354.064" r="2" fill="#A7A9BE"/>
<circle cx="10.9746" cy="354.064" r="2" fill="#A7A9BE"/>
<circle cx="18.9746" cy="354.064" r="2" fill="#A7A9BE"/>
<circle cx="26.9746" cy="354.064" r="2" fill="#A7A9BE"/>
<circle cx="34.9746" cy="354.064" r="2" fill="#A7A9BE"/>
<circle cx="42.9746" cy="354.064" r="2" fill="#A7A9BE"/>
<circle cx="50.9746" cy="354.064" r="2" fill="#A7A9BE"/>
<circle cx="58.9746" cy="354.064" r="2" fill="#A7A9BE"/>
<circle cx="66.9746" cy="354.064" r="2" fill="#A7A9BE"/>
<circle cx="74.9746" cy="354.064" r="2" fill="#A7A9BE"/>
<circle cx="2.97461" cy="362.064" r="2" fill="#A7A9BE"/>
<circle cx="10.9746" cy="362.064" r="2" fill="#A7A9BE"/>
<circle cx="18.9746" cy="362.064" r="2" fill="#A7A9BE"/>
<circle cx="26.9746" cy="362.064" r="2" fill="#A7A9BE"/>
<circle cx="34.9746" cy="362.064" r="2" fill="#A7A9BE"/>
<circle cx="42.9746" cy="362.064" r="2" fill="#A7A9BE"/>
<circle cx="50.9746" cy="362.064" r="2" fill="#A7A9BE"/>
<circle cx="58.9746" cy="362.064" r="2" fill="#A7A9BE"/>
<circle cx="66.9746" cy="362.064" r="2" fill="#A7A9BE"/>
<circle cx="74.9746" cy="362.064" r="2" fill="#A7A9BE"/>
<circle cx="2.97461" cy="370.064" r="2" fill="#A7A9BE"/>
<circle cx="10.9746" cy="370.064" r="2" fill="#A7A9BE"/>
<circle cx="18.9746" cy="370.064" r="2" fill="#A7A9BE"/>
<circle cx="26.9746" cy="370.064" r="2" fill="#A7A9BE"/>
<circle cx="34.9746" cy="370.064" r="2" fill="#A7A9BE"/>
<circle cx="42.9746" cy="370.064" r="2" fill="#A7A9BE"/>
<circle cx="50.9746" cy="370.064" r="2" fill="#A7A9BE"/>
<circle cx="58.9746" cy="370.064" r="2" fill="#A7A9BE"/>
<circle cx="66.9746" cy="370.064" r="2" fill="#A7A9BE"/>
<circle cx="74.9746" cy="370.064" r="2" fill="#A7A9BE"/>
<circle cx="2.97461" cy="378.064" r="2" fill="#A7A9BE"/>
<circle cx="10.9746" cy="378.064" r="2" fill="#A7A9BE"/>
<circle cx="18.9746" cy="378.064" r="2" fill="#A7A9BE"/>
<circle cx="26.9746" cy="378.064" r="2" fill="#A7A9BE"/>
<circle cx="34.9746" cy="378.064" r="2" fill="#A7A9BE"/>
<circle cx="42.9746" cy="378.064" r="2" fill="#A7A9BE"/>
<circle cx="50.9746" cy="378.064" r="2" fill="#A7A9BE"/>
<circle cx="58.9746" cy="378.064" r="2" fill="#A7A9BE"/>
<circle cx="66.9746" cy="378.064" r="2" fill="#A7A9BE"/>
<circle cx="74.9746" cy="378.064" r="2" fill="#A7A9BE"/>
<circle cx="2.97461" cy="386.064" r="2" fill="#A7A9BE"/>
<circle cx="10.9746" cy="386.064" r="2" fill="#A7A9BE"/>
<circle cx="18.9746" cy="386.064" r="2" fill="#A7A9BE"/>
<circle cx="26.9746" cy="386.064" r="2" fill="#A7A9BE"/>
<circle cx="34.9746" cy="386.064" r="2" fill="#A7A9BE"/>
<circle cx="42.9746" cy="386.064" r="2" fill="#A7A9BE"/>
<circle cx="50.9746" cy="386.064" r="2" fill="#A7A9BE"/>
<circle cx="58.9746" cy="386.064" r="2" fill="#A7A9BE"/>
<circle cx="66.9746" cy="386.064" r="2" fill="#A7A9BE"/>
<circle cx="74.9746" cy="386.064" r="2" fill="#A7A9BE"/>
<circle cx="2.97461" cy="394.064" r="2" fill="#A7A9BE"/>
<circle cx="10.9746" cy="394.064" r="2" fill="#A7A9BE"/>
<circle cx="18.9746" cy="394.064" r="2" fill="#A7A9BE"/>
<circle cx="26.9746" cy="394.064" r="2" fill="#A7A9BE"/>
<circle cx="34.9746" cy="394.064" r="2" fill="#A7A9BE"/>
<circle cx="42.9746" cy="394.064" r="2" fill="#A7A9BE"/>
<circle cx="50.9746" cy="394.064" r="2" fill="#A7A9BE"/>
<circle cx="58.9746" cy="394.064" r="2" fill="#A7A9BE"/>
<circle cx="66.9746" cy="394.064" r="2" fill="#A7A9BE"/>
<circle cx="74.9746" cy="394.064" r="2" fill="#A7A9BE"/>
<circle cx="2.97461" cy="402.064" r="2" fill="#A7A9BE"/>
<circle cx="10.9746" cy="402.064" r="2" fill="#A7A9BE"/>
<circle cx="18.9746" cy="402.064" r="2" fill="#A7A9BE"/>
<circle cx="26.9746" cy="402.064" r="2" fill="#A7A9BE"/>
<circle cx="34.9746" cy="402.064" r="2" fill="#A7A9BE"/>
<circle cx="42.9746" cy="402.064" r="2" fill="#A7A9BE"/>
<circle cx="50.9746" cy="402.064" r="2" fill="#A7A9BE"/>
<circle cx="58.9746" cy="402.064" r="2" fill="#A7A9BE"/>
<circle cx="66.9746" cy="402.064" r="2" fill="#A7A9BE"/>
<circle cx="74.9746" cy="402.064" r="2" fill="#A7A9BE"/>
<circle cx="2.97461" cy="410.064" r="2" fill="#A7A9BE"/>
<circle cx="10.9746" cy="410.064" r="2" fill="#A7A9BE"/>
<circle cx="18.9746" cy="410.064" r="2" fill="#A7A9BE"/>
<circle cx="26.9746" cy="410.064" r="2" fill="#A7A9BE"/>
<circle cx="34.9746" cy="410.064" r="2" fill="#A7A9BE"/>
<circle cx="42.9746" cy="410.064" r="2" fill="#A7A9BE"/>
<circle cx="50.9746" cy="410.064" r="2" fill="#A7A9BE"/>
<circle cx="58.9746" cy="410.064" r="2" fill="#A7A9BE"/>
<circle cx="66.9746" cy="410.064" r="2" fill="#A7A9BE"/>
<circle cx="74.9746" cy="410.064" r="2" fill="#A7A9BE"/>
<circle cx="2.97461" cy="418.064" r="2" fill="#A7A9BE"/>
<circle cx="10.9746" cy="418.064" r="2" fill="#A7A9BE"/>
<circle cx="18.9746" cy="418.064" r="2" fill="#A7A9BE"/>
<circle cx="26.9746" cy="418.064" r="2" fill="#A7A9BE"/>
<circle cx="34.9746" cy="418.064" r="2" fill="#A7A9BE"/>
<circle cx="42.9746" cy="418.064" r="2" fill="#A7A9BE"/>
<circle cx="50.9746" cy="418.064" r="2" fill="#A7A9BE"/>
<circle cx="58.9746" cy="418.064" r="2" fill="#A7A9BE"/>
<circle cx="66.9746" cy="418.064" r="2" fill="#A7A9BE"/>
<circle cx="74.9746" cy="418.064" r="2" fill="#A7A9BE"/>
<circle cx="2.97461" cy="426.064" r="2" fill="#A7A9BE"/>
<circle cx="10.9746" cy="426.064" r="2" fill="#A7A9BE"/>
<circle cx="18.9746" cy="426.064" r="2" fill="#A7A9BE"/>
<circle cx="26.9746" cy="426.064" r="2" fill="#A7A9BE"/>
<circle cx="34.9746" cy="426.064" r="2" fill="#A7A9BE"/>
<circle cx="42.9746" cy="426.064" r="2" fill="#A7A9BE"/>
<circle cx="50.9746" cy="426.064" r="2" fill="#A7A9BE"/>
<circle cx="58.9746" cy="426.064" r="2" fill="#A7A9BE"/>
<circle cx="66.9746" cy="426.064" r="2" fill="#A7A9BE"/>
<circle cx="74.9746" cy="426.064" r="2" fill="#A7A9BE"/>
<circle cx="2.97461" cy="434.064" r="2" fill="#A7A9BE"/>
<circle cx="10.9746" cy="434.064" r="2" fill="#A7A9BE"/>
<circle cx="18.9746" cy="434.064" r="2" fill="#A7A9BE"/>
<circle cx="26.9746" cy="434.064" r="2" fill="#A7A9BE"/>
<circle cx="34.9746" cy="434.064" r="2" fill="#A7A9BE"/>
<circle cx="42.9746" cy="434.064" r="2" fill="#A7A9BE"/>
<circle cx="50.9746" cy="434.064" r="2" fill="#A7A9BE"/>
<circle cx="58.9746" cy="434.064" r="2" fill="#A7A9BE"/>
<circle cx="66.9746" cy="434.064" r="2" fill="#A7A9BE"/>
<circle cx="74.9746" cy="434.064" r="2" fill="#A7A9BE"/>
<circle cx="2.97461" cy="442.064" r="2" fill="#A7A9BE"/>
<circle cx="10.9746" cy="442.064" r="2" fill="#A7A9BE"/>
<circle cx="18.9746" cy="442.064" r="2" fill="#A7A9BE"/>
<circle cx="26.9746" cy="442.064" r="2" fill="#A7A9BE"/>
<circle cx="34.9746" cy="442.064" r="2" fill="#A7A9BE"/>
<circle cx="42.9746" cy="442.064" r="2" fill="#A7A9BE"/>
<circle cx="50.9746" cy="442.064" r="2" fill="#A7A9BE"/>
<circle cx="58.9746" cy="442.064" r="2" fill="#A7A9BE"/>
<circle cx="66.9746" cy="442.064" r="2" fill="#A7A9BE"/>
<circle cx="74.9746" cy="442.064" r="2" fill="#A7A9BE"/>
<circle cx="2.97461" cy="450.064" r="2" fill="#A7A9BE"/>
<circle cx="10.9746" cy="450.064" r="2" fill="#A7A9BE"/>
<circle cx="18.9746" cy="450.064" r="2" fill="#A7A9BE"/>
<circle cx="26.9746" cy="450.064" r="2" fill="#A7A9BE"/>
<circle cx="34.9746" cy="450.064" r="2" fill="#A7A9BE"/>
<circle cx="42.9746" cy="450.064" r="2" fill="#A7A9BE"/>
<circle cx="50.9746" cy="450.064" r="2" fill="#A7A9BE"/>
<circle cx="58.9746" cy="450.064" r="2" fill="#A7A9BE"/>
<circle cx="66.9746" cy="450.064" r="2" fill="#A7A9BE"/>
<circle cx="74.9746" cy="450.064" r="2" fill="#A7A9BE"/>
<circle cx="2.97461" cy="458.064" r="2" fill="#A7A9BE"/>
<circle cx="10.9746" cy="458.064" r="2" fill="#A7A9BE"/>
<circle cx="18.9746" cy="458.064" r="2" fill="#A7A9BE"/>
<circle cx="26.9746" cy="458.064" r="2" fill="#A7A9BE"/>
<circle cx="34.9746" cy="458.064" r="2" fill="#A7A9BE"/>
<circle cx="42.9746" cy="458.064" r="2" fill="#A7A9BE"/>
<circle cx="50.9746" cy="458.064" r="2" fill="#A7A9BE"/>
<circle cx="58.9746" cy="458.064" r="2" fill="#A7A9BE"/>
<circle cx="66.9746" cy="458.064" r="2" fill="#A7A9BE"/>
<circle cx="74.9746" cy="458.064" r="2" fill="#A7A9BE"/>
<circle cx="2.97461" cy="466.064" r="2" fill="#A7A9BE"/>
<circle cx="10.9746" cy="466.064" r="2" fill="#A7A9BE"/>
<circle cx="18.9746" cy="466.064" r="2" fill="#A7A9BE"/>
<circle cx="26.9746" cy="466.064" r="2" fill="#A7A9BE"/>
<circle cx="34.9746" cy="466.064" r="2" fill="#A7A9BE"/>
<circle cx="42.9746" cy="466.064" r="2" fill="#A7A9BE"/>
<circle cx="50.9746" cy="466.064" r="2" fill="#A7A9BE"/>
<circle cx="58.9746" cy="466.064" r="2" fill="#A7A9BE"/>
<circle cx="66.9746" cy="466.064" r="2" fill="#A7A9BE"/>
<circle cx="74.9746" cy="466.064" r="2" fill="#A7A9BE"/>
<circle cx="2.97461" cy="474.064" r="2" fill="#A7A9BE"/>
<circle cx="10.9746" cy="474.064" r="2" fill="#A7A9BE"/>
<circle cx="18.9746" cy="474.064" r="2" fill="#A7A9BE"/>
<circle cx="26.9746" cy="474.064" r="2" fill="#A7A9BE"/>
<circle cx="34.9746" cy="474.064" r="2" fill="#A7A9BE"/>
<circle cx="42.9746" cy="474.064" r="2" fill="#A7A9BE"/>
<circle cx="50.9746" cy="474.064" r="2" fill="#A7A9BE"/>
<circle cx="58.9746" cy="474.064" r="2" fill="#A7A9BE"/>
<circle cx="66.9746" cy="474.064" r="2" fill="#A7A9BE"/>
<circle cx="74.9746" cy="474.064" r="2" fill="#A7A9BE"/>
<circle cx="2.97461" cy="482.064" r="2" fill="#A7A9BE"/>
<circle cx="10.9746" cy="482.064" r="2" fill="#A7A9BE"/>
<circle cx="18.9746" cy="482.064" r="2" fill="#A7A9BE"/>
<circle cx="26.9746" cy="482.064" r="2" fill="#A7A9BE"/>
<circle cx="34.9746" cy="482.064" r="2" fill="#A7A9BE"/>
<circle cx="42.9746" cy="482.064" r="2" fill="#A7A9BE"/>
<circle cx="50.9746" cy="482.064" r="2" fill="#A7A9BE"/>
<circle cx="58.9746" cy="482.064" r="2" fill="#A7A9BE"/>
<circle cx="66.9746" cy="482.064" r="2" fill="#A7A9BE"/>
<circle cx="74.9746" cy="482.064" r="2" fill="#A7A9BE"/>
</svg>
