<svg width="14" height="16" viewBox="0 0 14 16" fill="none" xmlns="http://www.w3.org/2000/svg">
<path d="M12.8605 13.9991C12.1966 14.991 11.4926 15.9589 10.4207 15.9749C9.34878 15.9989 9.0048 15.343 7.78888 15.343C6.56496 15.343 6.18899 15.9589 5.17306 15.9989C4.12513 16.0389 3.33318 14.943 2.66122 13.9751C1.29331 11.9992 0.245384 8.35944 1.65329 5.91161C2.34924 4.69569 3.59716 3.92774 4.94907 3.90374C5.973 3.88774 6.94894 4.59969 7.5809 4.59969C8.20486 4.59969 9.38878 3.74375 10.6287 3.87174C11.1487 3.89574 12.6046 4.07973 13.5405 5.45564C13.4685 5.50363 11.8046 6.47957 11.8206 8.50344C11.8446 10.9193 13.9405 11.7272 13.9645 11.7352C13.9405 11.7912 13.6285 12.8871 12.8605 13.9991ZM8.29285 1.19992C8.87681 0.535964 9.84475 0.0319979 10.6447 0C10.7487 0.935938 10.3727 1.87988 9.81275 2.55183C9.26079 3.23179 8.34885 3.75975 7.45291 3.68776C7.33291 2.76782 7.78088 1.80788 8.29285 1.19992Z" fill="white"/>
</svg>
