<svg width="15" height="16" viewBox="0 0 15 16" fill="none" xmlns="http://www.w3.org/2000/svg">
<path d="M0.0461426 0.981879V15.0174C0.0462366 15.0479 0.0553188 15.0776 0.0722504 15.1029C0.089182 15.1282 0.113209 15.148 0.141319 15.1597C0.169429 15.1714 0.20037 15.1745 0.230263 15.1687C0.260156 15.1629 0.287669 15.1484 0.309353 15.127L7.61747 8L0.309353 0.872238C0.287669 0.850858 0.260156 0.836357 0.230263 0.830552C0.20037 0.824747 0.169429 0.827896 0.141319 0.839606C0.113209 0.851315 0.089182 0.871063 0.0722504 0.896373C0.0553188 0.921683 0.0462366 0.951428 0.0461426 0.981879ZM10.6817 5.07147L1.51827 0.0229633L1.51255 0.0197491C1.3547 -0.0659641 1.2047 0.147605 1.33398 0.271889L8.5171 7.14037L10.6817 5.07147ZM1.3347 15.7281C1.2047 15.8524 1.3547 16.066 1.51327 15.9803L1.51898 15.977L10.6817 10.9285L8.5171 8.85892L1.3347 15.7281ZM14.381 7.10715L11.8221 5.69789L9.41602 8L11.8221 10.301L14.381 8.89285C15.077 8.50821 15.077 7.49179 14.381 7.10715Z" fill="white"/>
</svg>
