<svg width="93" height="13" viewBox="0 0 93 13" fill="none" xmlns="http://www.w3.org/2000/svg">
<circle cx="2.47461" cy="2.81348" r="2" fill="#A7A9BE"/>
<circle cx="2.47461" cy="10.8135" r="2" fill="#A7A9BE"/>
<circle cx="10.4746" cy="2.81348" r="2" fill="#A7A9BE"/>
<circle cx="10.4746" cy="10.8135" r="2" fill="#A7A9BE"/>
<circle cx="18.4746" cy="2.81348" r="2" fill="#A7A9BE"/>
<circle cx="18.4746" cy="10.8135" r="2" fill="#A7A9BE"/>
<circle cx="26.4746" cy="2.81348" r="2" fill="#A7A9BE"/>
<circle cx="26.4746" cy="10.8135" r="2" fill="#A7A9BE"/>
<circle cx="34.4746" cy="2.81348" r="2" fill="#A7A9BE"/>
<circle cx="34.4746" cy="10.8135" r="2" fill="#A7A9BE"/>
<circle cx="42.4746" cy="2.81348" r="2" fill="#A7A9BE"/>
<circle cx="42.4746" cy="10.8135" r="2" fill="#A7A9BE"/>
<circle cx="50.4746" cy="2.81348" r="2" fill="#A7A9BE"/>
<circle cx="50.4746" cy="10.8135" r="2" fill="#A7A9BE"/>
<circle cx="58.4746" cy="2.81348" r="2" fill="#A7A9BE"/>
<circle cx="58.4746" cy="10.8135" r="2" fill="#A7A9BE"/>
<circle cx="66.4746" cy="2.81348" r="2" fill="#A7A9BE"/>
<circle cx="66.4746" cy="10.8135" r="2" fill="#A7A9BE"/>
<circle cx="74.4746" cy="2.81348" r="2" fill="#A7A9BE"/>
<circle cx="74.4746" cy="10.8135" r="2" fill="#A7A9BE"/>
<circle cx="82.4746" cy="2.81348" r="2" fill="#A7A9BE"/>
<circle cx="82.4746" cy="10.8135" r="2" fill="#A7A9BE"/>
<circle cx="90.4746" cy="2.81348" r="2" fill="#A7A9BE"/>
<circle cx="90.4746" cy="10.8135" r="2" fill="#A7A9BE"/>
</svg>
