<svg width="43" height="31" viewBox="0 0 43 31" fill="none" xmlns="http://www.w3.org/2000/svg">
<path d="M0.974609 25.985C0.974609 27.2091 1.45624 28.383 2.31355 29.2486C3.17086 30.1141 4.33362 30.6004 5.54604 30.6004H37.546C38.7585 30.6004 39.9212 30.1141 40.7785 29.2486C41.6358 28.383 42.1175 27.2091 42.1175 25.985V20.2158H0.974609V25.985Z" fill="#138808"/>
<path d="M42.1175 10.985V5.21576C42.1175 3.99168 41.6358 2.81774 40.7785 1.95219C39.9212 1.08663 38.7585 0.600372 37.546 0.600372H5.54604C4.33362 0.600372 3.17086 1.08663 2.31355 1.95219C1.45624 2.81774 0.974609 3.99168 0.974609 5.21576V10.985H42.1175Z" fill="#FF9933"/>
<path d="M0.974609 10.6008H42.1175V20.6011H0.974609V10.6008Z" fill="#F7F7F7"/>
<path d="M21.546 20.2158C24.0708 20.2158 26.1175 18.1494 26.1175 15.6004C26.1175 13.0514 24.0708 10.985 21.546 10.985C19.0213 10.985 16.9746 13.0514 16.9746 15.6004C16.9746 18.1494 19.0213 20.2158 21.546 20.2158Z" fill="#000080"/>
<path d="M21.546 19.4946C23.6763 19.4946 25.4032 17.7511 25.4032 15.6004C25.4032 13.4496 23.6763 11.7061 21.546 11.7061C19.4158 11.7061 17.6889 13.4496 17.6889 15.6004C17.6889 17.7511 19.4158 19.4946 21.546 19.4946Z" fill="#F7F7F7"/>
<path d="M21.6603 14.1581L21.546 14.9081L21.4318 14.1581L21.546 11.9081L21.6603 14.1581ZM20.5998 12.0338L21.066 14.2365L21.3689 14.9311L21.2866 14.1777L20.5998 12.0338ZM19.7175 12.4031L20.7323 14.4084L21.2032 15.0004L20.9312 14.2931L19.7175 12.4031ZM18.9598 12.9892L20.4546 14.6623L21.0615 15.1111L20.6169 14.4984L18.9598 12.9892ZM18.3792 13.7542L20.2512 14.9796L20.9517 15.2542L20.3655 14.7788L18.3792 13.7542ZM18.0135 14.645L20.1369 15.3384L20.8832 15.4215L20.1952 15.1158L18.0135 14.645ZM17.8889 15.6004L20.1175 15.7158L20.8603 15.6004L20.1175 15.485L17.8889 15.6004ZM18.0135 16.5558L20.1952 16.085L20.8832 15.7792L20.1369 15.8623L18.0135 16.5558ZM18.3792 17.4465L20.3655 16.4219L20.9517 15.9465L20.2512 16.2211L18.3792 17.4465ZM18.9598 18.2115L20.6169 16.7023L21.0615 16.0896L20.4546 16.5384L18.9598 18.2115ZM19.7175 18.7977L20.9312 16.9077L21.2032 16.2004L20.7323 16.7923L19.7175 18.7977ZM20.5998 19.1669L21.2866 17.0231L21.3689 16.2696L21.066 16.9642L20.5998 19.1669ZM21.546 19.2927L21.6603 17.0427L21.546 16.2927L21.4318 17.0427L21.546 19.2927ZM22.4923 19.1669L22.026 16.9642L21.7232 16.2696L21.8055 17.0231L22.4923 19.1669ZM23.3746 18.7977L22.3598 16.7923L21.8889 16.2004L22.1609 16.9077L23.3746 18.7977ZM24.1323 18.2115L22.6375 16.5384L22.0306 16.0896L22.4752 16.7023L24.1323 18.2115ZM24.7129 17.4465L22.8409 16.2211L22.1403 15.9465L22.7266 16.4219L24.7129 17.4465ZM25.0786 16.5558L22.9552 15.8623L22.2089 15.7792L22.8969 16.085L25.0786 16.5558ZM25.2032 15.6004L22.9746 15.485L22.2318 15.6004L22.9746 15.7158L25.2032 15.6004ZM25.0786 14.645L22.8969 15.1158L22.2089 15.4215L22.9552 15.3384L25.0786 14.645ZM24.7129 13.7542L22.7266 14.7788L22.1403 15.2542L22.8409 14.9796L24.7129 13.7542ZM24.1323 12.9892L22.4752 14.4984L22.0306 15.1111L22.6375 14.6623L24.1323 12.9892ZM23.3746 12.4031L22.1609 14.2931L21.8889 15.0004L22.3598 14.4084L23.3746 12.4031ZM22.4923 12.0338L21.8055 14.1777L21.7232 14.9311L22.026 14.2365L22.4923 12.0338Z" fill="#6666B3"/>
<path d="M21.0432 11.9761C21.1694 11.9761 21.2718 11.8728 21.2718 11.7454C21.2718 11.6179 21.1694 11.5146 21.0432 11.5146C20.9169 11.5146 20.8146 11.6179 20.8146 11.7454C20.8146 11.8728 20.9169 11.9761 21.0432 11.9761Z" fill="#000080"/>
<path d="M20.0718 12.2392C20.198 12.2392 20.3003 12.1359 20.3003 12.0084C20.3003 11.881 20.198 11.7777 20.0718 11.7777C19.9455 11.7777 19.8432 11.881 19.8432 12.0084C19.8432 12.1359 19.9455 12.2392 20.0718 12.2392Z" fill="#000080"/>
<path d="M19.2009 12.7458C19.3271 12.7458 19.4295 12.6424 19.4295 12.515C19.4295 12.3875 19.3271 12.2842 19.2009 12.2842C19.0747 12.2842 18.9723 12.3875 18.9723 12.515C18.9723 12.6424 19.0747 12.7458 19.2009 12.7458Z" fill="#000080"/>
<path d="M18.49 13.4635C18.6163 13.4635 18.7186 13.3601 18.7186 13.2327C18.7186 13.1052 18.6163 13.0019 18.49 13.0019C18.3638 13.0019 18.2615 13.1052 18.2615 13.2327C18.2615 13.3601 18.3638 13.4635 18.49 13.4635Z" fill="#000080"/>
<path d="M17.9883 14.3427C18.1146 14.3427 18.2169 14.2394 18.2169 14.1119C18.2169 13.9845 18.1146 13.8811 17.9883 13.8811C17.8621 13.8811 17.7598 13.9845 17.7598 14.1119C17.7598 14.2394 17.8621 14.3427 17.9883 14.3427Z" fill="#000080"/>
<path d="M17.7278 15.3234C17.854 15.3234 17.9563 15.2201 17.9563 15.0927C17.9563 14.9652 17.854 14.8619 17.7278 14.8619C17.6015 14.8619 17.4992 14.9652 17.4992 15.0927C17.4992 15.2201 17.6015 15.3234 17.7278 15.3234Z" fill="#000080"/>
<path d="M17.7278 16.3388C17.854 16.3388 17.9563 16.2355 17.9563 16.1081C17.9563 15.9806 17.854 15.8773 17.7278 15.8773C17.6015 15.8773 17.4992 15.9806 17.4992 16.1081C17.4992 16.2355 17.6015 16.3388 17.7278 16.3388Z" fill="#000080"/>
<path d="M17.9883 17.3196C18.1146 17.3196 18.2169 17.2163 18.2169 17.0888C18.2169 16.9614 18.1146 16.8581 17.9883 16.8581C17.8621 16.8581 17.7598 16.9614 17.7598 17.0888C17.7598 17.2163 17.8621 17.3196 17.9883 17.3196Z" fill="#000080"/>
<path d="M18.49 18.1988C18.6163 18.1988 18.7186 18.0955 18.7186 17.9681C18.7186 17.8406 18.6163 17.7373 18.49 17.7373C18.3638 17.7373 18.2615 17.8406 18.2615 17.9681C18.2615 18.0955 18.3638 18.1988 18.49 18.1988Z" fill="#000080"/>
<path d="M19.2009 18.9165C19.3271 18.9165 19.4295 18.8132 19.4295 18.6858C19.4295 18.5583 19.3271 18.455 19.2009 18.455C19.0747 18.455 18.9723 18.5583 18.9723 18.6858C18.9723 18.8132 19.0747 18.9165 19.2009 18.9165Z" fill="#000080"/>
<path d="M20.0718 19.4231C20.198 19.4231 20.3003 19.3197 20.3003 19.1923C20.3003 19.0648 20.198 18.9615 20.0718 18.9615C19.9455 18.9615 19.8432 19.0648 19.8432 19.1923C19.8432 19.3197 19.9455 19.4231 20.0718 19.4231Z" fill="#000080"/>
<path d="M21.0432 19.6861C21.1694 19.6861 21.2718 19.5828 21.2718 19.4554C21.2718 19.3279 21.1694 19.2246 21.0432 19.2246C20.9169 19.2246 20.8146 19.3279 20.8146 19.4554C20.8146 19.5828 20.9169 19.6861 21.0432 19.6861Z" fill="#000080"/>
<path d="M22.0489 19.6861C22.1751 19.6861 22.2775 19.5828 22.2775 19.4554C22.2775 19.3279 22.1751 19.2246 22.0489 19.2246C21.9227 19.2246 21.8203 19.3279 21.8203 19.4554C21.8203 19.5828 21.9227 19.6861 22.0489 19.6861Z" fill="#000080"/>
<path d="M23.0203 19.4231C23.1466 19.4231 23.2489 19.3197 23.2489 19.1923C23.2489 19.0648 23.1466 18.9615 23.0203 18.9615C22.8941 18.9615 22.7918 19.0648 22.7918 19.1923C22.7918 19.3197 22.8941 19.4231 23.0203 19.4231Z" fill="#000080"/>
<path d="M23.8912 18.9165C24.0174 18.9165 24.1198 18.8132 24.1198 18.6858C24.1198 18.5583 24.0174 18.455 23.8912 18.455C23.7649 18.455 23.6626 18.5583 23.6626 18.6858C23.6626 18.8132 23.7649 18.9165 23.8912 18.9165Z" fill="#000080"/>
<path d="M24.602 18.1988C24.7283 18.1988 24.8306 18.0955 24.8306 17.9681C24.8306 17.8406 24.7283 17.7373 24.602 17.7373C24.4758 17.7373 24.3735 17.8406 24.3735 17.9681C24.3735 18.0955 24.4758 18.1988 24.602 18.1988Z" fill="#000080"/>
<path d="M25.1038 17.3196C25.23 17.3196 25.3323 17.2163 25.3323 17.0888C25.3323 16.9614 25.23 16.8581 25.1038 16.8581C24.9775 16.8581 24.8752 16.9614 24.8752 17.0888C24.8752 17.2163 24.9775 17.3196 25.1038 17.3196Z" fill="#000080"/>
<path d="M25.3643 16.3388C25.4906 16.3388 25.5929 16.2355 25.5929 16.1081C25.5929 15.9806 25.4906 15.8773 25.3643 15.8773C25.2381 15.8773 25.1358 15.9806 25.1358 16.1081C25.1358 16.2355 25.2381 16.3388 25.3643 16.3388Z" fill="#000080"/>
<path d="M25.3643 15.3234C25.4906 15.3234 25.5929 15.2201 25.5929 15.0927C25.5929 14.9652 25.4906 14.8619 25.3643 14.8619C25.2381 14.8619 25.1358 14.9652 25.1358 15.0927C25.1358 15.2201 25.2381 15.3234 25.3643 15.3234Z" fill="#000080"/>
<path d="M25.1038 14.3427C25.23 14.3427 25.3323 14.2394 25.3323 14.1119C25.3323 13.9845 25.23 13.8811 25.1038 13.8811C24.9775 13.8811 24.8752 13.9845 24.8752 14.1119C24.8752 14.2394 24.9775 14.3427 25.1038 14.3427Z" fill="#000080"/>
<path d="M24.602 13.4635C24.7283 13.4635 24.8306 13.3601 24.8306 13.2327C24.8306 13.1052 24.7283 13.0019 24.602 13.0019C24.4758 13.0019 24.3735 13.1052 24.3735 13.2327C24.3735 13.3601 24.4758 13.4635 24.602 13.4635Z" fill="#000080"/>
<path d="M23.8912 12.7458C24.0174 12.7458 24.1198 12.6424 24.1198 12.515C24.1198 12.3875 24.0174 12.2842 23.8912 12.2842C23.7649 12.2842 23.6626 12.3875 23.6626 12.515C23.6626 12.6424 23.7649 12.7458 23.8912 12.7458Z" fill="#000080"/>
<path d="M23.0203 12.2392C23.1466 12.2392 23.2489 12.1359 23.2489 12.0084C23.2489 11.881 23.1466 11.7777 23.0203 11.7777C22.8941 11.7777 22.7918 11.881 22.7918 12.0084C22.7918 12.1359 22.8941 12.2392 23.0203 12.2392Z" fill="#000080"/>
<path d="M22.0489 11.9761C22.1751 11.9761 22.2775 11.8728 22.2775 11.7454C22.2775 11.6179 22.1751 11.5146 22.0489 11.5146C21.9227 11.5146 21.8203 11.6179 21.8203 11.7454C21.8203 11.8728 21.9227 11.9761 22.0489 11.9761Z" fill="#000080"/>
<path d="M21.546 16.6388C22.1141 16.6388 22.5746 16.1739 22.5746 15.6004C22.5746 15.0268 22.1141 14.5619 21.546 14.5619C20.978 14.5619 20.5175 15.0268 20.5175 15.6004C20.5175 16.1739 20.978 16.6388 21.546 16.6388Z" fill="#000080"/>
</svg>
