<svg width="293" height="12" viewBox="0 0 293 12" fill="none" xmlns="http://www.w3.org/2000/svg">
<circle cx="2.81348" cy="2" r="2" fill="#242A38"/>
<circle cx="2.81348" cy="10" r="2" fill="#242A38"/>
<circle cx="10.8135" cy="2" r="2" fill="#242A38"/>
<circle cx="10.8135" cy="10" r="2" fill="#242A38"/>
<circle cx="18.8135" cy="2" r="2" fill="#242A38"/>
<circle cx="18.8135" cy="10" r="2" fill="#242A38"/>
<circle cx="26.8135" cy="2" r="2" fill="#242A38"/>
<circle cx="26.8135" cy="10" r="2" fill="#242A38"/>
<circle cx="34.8135" cy="2" r="2" fill="#242A38"/>
<circle cx="34.8135" cy="10" r="2" fill="#242A38"/>
<circle cx="42.8135" cy="2" r="2" fill="#242A38"/>
<circle cx="42.8135" cy="10" r="2" fill="#242A38"/>
<circle cx="50.8135" cy="2" r="2" fill="#242A38"/>
<circle cx="50.8135" cy="10" r="2" fill="#242A38"/>
<circle cx="58.8135" cy="2" r="2" fill="#242A38"/>
<circle cx="58.8135" cy="10" r="2" fill="#242A38"/>
<circle cx="66.8135" cy="2" r="2" fill="#242A38"/>
<circle cx="66.8135" cy="10" r="2" fill="#242A38"/>
<circle cx="74.8135" cy="2" r="2" fill="#242A38"/>
<circle cx="74.8135" cy="10" r="2" fill="#242A38"/>
<circle cx="82.8135" cy="2" r="2" fill="#242A38"/>
<circle cx="82.8135" cy="10" r="2" fill="#242A38"/>
<circle cx="90.8135" cy="2" r="2" fill="#242A38"/>
<circle cx="90.8135" cy="10" r="2" fill="#242A38"/>
<circle cx="98.8135" cy="2" r="2" fill="#242A38"/>
<circle cx="98.8135" cy="10" r="2" fill="#242A38"/>
<circle cx="106.813" cy="2" r="2" fill="#242A38"/>
<circle cx="106.813" cy="10" r="2" fill="#242A38"/>
<circle cx="114.813" cy="2" r="2" fill="#242A38"/>
<circle cx="114.813" cy="10" r="2" fill="#242A38"/>
<circle cx="122.813" cy="2" r="2" fill="#242A38"/>
<circle cx="122.813" cy="10" r="2" fill="#242A38"/>
<circle cx="130.813" cy="2" r="2" fill="#242A38"/>
<circle cx="130.813" cy="10" r="2" fill="#242A38"/>
<circle cx="138.813" cy="2" r="2" fill="#242A38"/>
<circle cx="138.813" cy="10" r="2" fill="#242A38"/>
<circle cx="146.813" cy="2" r="2" fill="#242A38"/>
<circle cx="146.813" cy="10" r="2" fill="#242A38"/>
<circle cx="154.813" cy="2" r="2" fill="#242A38"/>
<circle cx="154.813" cy="10" r="2" fill="#242A38"/>
<circle cx="162.813" cy="2" r="2" fill="#242A38"/>
<circle cx="162.813" cy="10" r="2" fill="#242A38"/>
<circle cx="170.813" cy="2" r="2" fill="#242A38"/>
<circle cx="170.813" cy="10" r="2" fill="#242A38"/>
<circle cx="178.813" cy="2" r="2" fill="#242A38"/>
<circle cx="178.813" cy="10" r="2" fill="#242A38"/>
<circle cx="186.813" cy="2" r="2" fill="#242A38"/>
<circle cx="186.813" cy="10" r="2" fill="#242A38"/>
<circle cx="194.813" cy="2" r="2" fill="#242A38"/>
<circle cx="194.813" cy="10" r="2" fill="#242A38"/>
<circle cx="202.813" cy="2" r="2" fill="#242A38"/>
<circle cx="202.813" cy="10" r="2" fill="#242A38"/>
<circle cx="210.813" cy="2" r="2" fill="#242A38"/>
<circle cx="210.813" cy="10" r="2" fill="#242A38"/>
<circle cx="218.813" cy="2" r="2" fill="#242A38"/>
<circle cx="218.813" cy="10" r="2" fill="#242A38"/>
<circle cx="226.813" cy="2" r="2" fill="#242A38"/>
<circle cx="226.813" cy="10" r="2" fill="#242A38"/>
<circle cx="234.813" cy="2" r="2" fill="#242A38"/>
<circle cx="234.813" cy="10" r="2" fill="#242A38"/>
<circle cx="242.813" cy="2" r="2" fill="#242A38"/>
<circle cx="242.813" cy="10" r="2" fill="#242A38"/>
<circle cx="250.813" cy="2" r="2" fill="#242A38"/>
<circle cx="250.813" cy="10" r="2" fill="#242A38"/>
<circle cx="258.813" cy="2" r="2" fill="#242A38"/>
<circle cx="258.813" cy="10" r="2" fill="#242A38"/>
<circle cx="266.813" cy="2" r="2" fill="#242A38"/>
<circle cx="266.813" cy="10" r="2" fill="#242A38"/>
<circle cx="274.813" cy="2" r="2" fill="#242A38"/>
<circle cx="274.813" cy="10" r="2" fill="#242A38"/>
<circle cx="282.813" cy="2" r="2" fill="#242A38"/>
<circle cx="282.813" cy="10" r="2" fill="#242A38"/>
<circle cx="290.813" cy="2" r="2" fill="#242A38"/>
<circle cx="290.813" cy="10" r="2" fill="#242A38"/>
</svg>
