<svg width="25" height="24" viewBox="0 0 25 24" fill="none" xmlns="http://www.w3.org/2000/svg">
<path d="M19.3496 0H6.59961C3.49301 0 0.974609 2.5184 0.974609 5.625V18.375C0.974609 21.4816 3.49301 24 6.59961 24H19.3496C22.4562 24 24.9746 21.4816 24.9746 18.375V5.625C24.9746 2.5184 22.4562 0 19.3496 0Z" fill="white"/>
<path d="M19.3496 0H6.59961C3.49301 0 0.974609 2.5184 0.974609 5.625V18.375C0.974609 21.4816 3.49301 24 6.59961 24H19.3496C22.4562 24 24.9746 21.4816 24.9746 18.375V5.625C24.9746 2.5184 22.4562 0 19.3496 0Z" fill="#1D9BF0"/>
<path d="M19.6845 8.56978C19.6948 8.71856 19.6948 8.86734 19.6948 9.01753C19.6948 13.5922 16.2122 18.8683 9.84402 18.8683V18.8655C7.96275 18.8682 6.12046 18.3294 4.53711 17.3135C4.81067 17.3464 5.08555 17.3628 5.36117 17.3634C6.92039 17.3647 8.43475 16.8417 9.66092 15.8785C8.93848 15.8649 8.23837 15.6258 7.65846 15.1947C7.07855 14.7637 6.64784 14.1622 6.42655 13.4743C6.94524 13.5743 7.47998 13.5539 7.98955 13.4147C6.37442 13.0883 5.21239 11.6692 5.21239 10.0211V9.97725C5.69388 10.2454 6.23275 10.394 6.78364 10.4106C5.26245 9.39384 4.79352 7.37006 5.71208 5.78775C6.58126 6.85734 7.66573 7.73212 8.89503 8.35528C10.1243 8.97843 11.471 9.33602 12.8475 9.40481C12.7102 8.81403 12.7305 8.19758 12.9063 7.61709C13.082 7.03661 13.4071 6.51245 13.849 6.09703C15.2435 4.78621 17.4365 4.85343 18.7474 6.24712C19.5227 6.09405 20.2662 5.80981 20.9459 5.40665C20.6874 6.20827 20.1466 6.88872 19.424 7.3214C20.1103 7.24054 20.7805 7.05683 21.4121 6.77643C20.9475 7.47224 20.3624 8.07948 19.6845 8.56978Z" fill="white"/>
</svg>
