<svg width="25" height="24" viewBox="0 0 25 24" fill="none" xmlns="http://www.w3.org/2000/svg">
<path d="M5.35686 0C2.92929 0 0.974609 1.95468 0.974609 4.38225V19.6177C0.974609 22.0453 2.92929 24 5.35686 24H13.6144V14.6175H11.1334V11.2395H13.6144V8.35349C13.6144 6.0861 15.0802 4.00425 18.4571 4.00425C19.8243 4.00425 20.8353 4.1355 20.8353 4.1355L20.7558 7.29001C20.7558 7.29001 19.7247 7.28027 18.5996 7.28027C17.3818 7.28027 17.1866 7.84134 17.1866 8.77277V11.2395H20.8526L20.6928 14.6175H17.1866V24H20.5923C23.0199 24 24.9746 22.0453 24.9746 19.6178V4.38227C24.9746 1.9547 23.0199 2.4e-05 20.5923 2.4e-05H5.35683L5.35686 0Z" fill="#1877F2"/>
</svg>
