<svg width="25" height="24" viewBox="0 0 25 24" fill="none" xmlns="http://www.w3.org/2000/svg">
<path d="M19.3496 0H6.59961C3.49301 0 0.974609 2.5184 0.974609 5.625V18.375C0.974609 21.4816 3.49301 24 6.59961 24H19.3496C22.4562 24 24.9746 21.4816 24.9746 18.375V5.625C24.9746 2.5184 22.4562 0 19.3496 0Z" fill="url(#paint0_radial_1537_13687)"/>
<path d="M19.3496 0H6.59961C3.49301 0 0.974609 2.5184 0.974609 5.625V18.375C0.974609 21.4816 3.49301 24 6.59961 24H19.3496C22.4562 24 24.9746 21.4816 24.9746 18.375V5.625C24.9746 2.5184 22.4562 0 19.3496 0Z" fill="url(#paint1_radial_1537_13687)"/>
<path d="M12.9755 2.625C10.4294 2.625 10.1098 2.63616 9.10986 2.68163C8.1118 2.72738 7.43052 2.88534 6.83445 3.11719C6.21777 3.35662 5.69473 3.67697 5.17367 4.19822C4.65214 4.71937 4.3318 5.24241 4.09161 5.85881C3.85911 6.45506 3.70095 7.13662 3.65605 8.13422C3.61133 9.13425 3.59961 9.45394 3.59961 12.0001C3.59961 14.5463 3.61086 14.8648 3.65623 15.8647C3.70217 16.8628 3.86014 17.5441 4.0918 18.1402C4.33142 18.7568 4.65177 19.2799 5.17302 19.8009C5.69398 20.3225 6.21702 20.6436 6.83323 20.883C7.42977 21.1148 8.11114 21.2728 9.10902 21.3186C10.109 21.364 10.4284 21.3752 12.9743 21.3752C15.5207 21.3752 15.8392 21.364 16.8392 21.3186C17.8372 21.2728 18.5193 21.1148 19.1158 20.883C19.7322 20.6436 20.2545 20.3225 20.7754 19.8009C21.2969 19.2799 21.6171 18.7568 21.8574 18.1404C22.0879 17.5441 22.2461 16.8626 22.293 15.8649C22.3379 14.865 22.3496 14.5463 22.3496 12.0001C22.3496 9.45394 22.3379 9.13444 22.293 8.13441C22.2461 7.13634 22.0879 6.45516 21.8574 5.85909C21.6171 5.24241 21.2969 4.71937 20.7754 4.19822C20.2539 3.67678 19.7324 3.35644 19.1152 3.11728C18.5176 2.88534 17.8359 2.72728 16.8379 2.68163C15.8378 2.63616 15.5195 2.625 12.9725 2.625H12.9755ZM12.1344 4.31447C12.3841 4.31409 12.6626 4.31447 12.9755 4.31447C15.4787 4.31447 15.7753 4.32347 16.7638 4.36838C17.6779 4.41019 18.174 4.56291 18.5045 4.69125C18.942 4.86112 19.2539 5.06428 19.5818 5.3925C19.91 5.72062 20.113 6.03309 20.2834 6.47062C20.4117 6.80062 20.5646 7.29675 20.6062 8.21081C20.6511 9.19913 20.6609 9.49594 20.6609 11.9979C20.6609 14.4999 20.6511 14.7968 20.6062 15.7851C20.5644 16.6991 20.4117 17.1952 20.2834 17.5253C20.1135 17.9629 19.91 18.2744 19.5818 18.6023C19.2537 18.9305 18.9422 19.1335 18.5045 19.3035C18.1744 19.4324 17.6779 19.5848 16.7638 19.6266C15.7755 19.6715 15.4787 19.6812 12.9755 19.6812C10.4721 19.6812 10.1754 19.6715 9.1872 19.6266C8.27314 19.5844 7.77702 19.4317 7.44627 19.3033C7.00883 19.1333 6.69627 18.9303 6.36814 18.6022C6.04002 18.274 5.83695 17.9623 5.66661 17.5246C5.53827 17.1945 5.38536 16.6984 5.34373 15.7843C5.29883 14.796 5.28983 14.4992 5.28983 11.9956C5.28983 9.49209 5.29883 9.19678 5.34373 8.20847C5.38555 7.29441 5.53827 6.79828 5.66661 6.46781C5.83658 6.03028 6.04002 5.71781 6.36823 5.38969C6.69636 5.06156 7.00883 4.85841 7.44636 4.68816C7.77683 4.55925 8.27314 4.40691 9.1872 4.36491C10.052 4.32581 10.3872 4.31409 12.1344 4.31212V4.31447ZM17.9798 5.87109C17.3587 5.87109 16.8548 6.37453 16.8548 6.99572C16.8548 7.61681 17.3587 8.12072 17.9798 8.12072C18.6009 8.12072 19.1048 7.61681 19.1048 6.99572C19.1048 6.37463 18.6009 5.87072 17.9798 5.87072V5.87109ZM12.9755 7.18556C10.3167 7.18556 8.16102 9.34125 8.16102 12.0001C8.16102 14.6589 10.3167 16.8136 12.9755 16.8136C15.6343 16.8136 17.7892 14.6589 17.7892 12.0001C17.7892 9.34134 15.6341 7.18556 12.9753 7.18556H12.9755ZM12.9755 8.87503C14.7013 8.87503 16.1005 10.2741 16.1005 12.0001C16.1005 13.7259 14.7013 15.1252 12.9755 15.1252C11.2495 15.1252 9.85048 13.7259 9.85048 12.0001C9.85048 10.2741 11.2495 8.87503 12.9755 8.87503Z" fill="white"/>
<defs>
<radialGradient id="paint0_radial_1537_13687" cx="0" cy="0" r="1" gradientUnits="userSpaceOnUse" gradientTransform="translate(7.34961 25.8485) rotate(-90) scale(23.7858 22.1227)">
<stop stop-color="#FFDD55"/>
<stop offset="0.1" stop-color="#FFDD55"/>
<stop offset="0.5" stop-color="#FF543E"/>
<stop offset="1" stop-color="#C837AB"/>
</radialGradient>
<radialGradient id="paint1_radial_1537_13687" cx="0" cy="0" r="1" gradientUnits="userSpaceOnUse" gradientTransform="translate(-3.04548 1.72884) rotate(78.681) scale(10.6324 43.827)">
<stop stop-color="#3771C8"/>
<stop offset="0.128" stop-color="#3771C8"/>
<stop offset="1" stop-color="#6600FF" stop-opacity="0"/>
</radialGradient>
</defs>
</svg>
